<?xml version="1.0" encoding="UTF-8" standalone="no"?>
<!DOCTYPE svg PUBLIC "-//W3C//DTD SVG 1.1//EN"
 "http://www.w3.org/Graphics/SVG/1.1/DTD/svg11.dtd">
<!-- Generated by graphviz version 7.0.0 (0)
 -->
<!-- Title: ../../../bazel&#45;bin/profiler/jemalloc/heap&#45;profiling/main; 48399392 B Pages: 1 -->
<svg width="100%" height="100%"
  xmlns="http://www.w3.org/2000/svg" xmlns:xlink="http://www.w3.org/1999/xlink">
<script type="text/ecmascript"><![CDATA[
// SVGPan
// http://www.cyberz.org/blog/2009/12/08/svgpan-a-javascript-svg-panzoomdrag-library/
// Local modification: if(true || ...) below to force panning, never moving.

/**
 *  SVGPan library 1.2
 * ====================
 *
 * Given an unique existing element with id "viewport", including the
 * the library into any SVG adds the following capabilities:
 *
 *  - Mouse panning
 *  - Mouse zooming (using the wheel)
 *  - Object dargging
 *
 * Known issues:
 *
 *  - Zooming (while panning) on Safari has still some issues
 *
 * Releases:
 *
 * 1.2, Sat Mar 20 08:42:50 GMT 2010, Zeng Xiaohui
 *	Fixed a bug with browser mouse handler interaction
 *
 * 1.1, Wed Feb  3 17:39:33 GMT 2010, Zeng Xiaohui
 *	Updated the zoom code to support the mouse wheel on Safari/Chrome
 *
 * 1.0, Andrea Leofreddi
 *	First release
 *
 * This code is licensed under the following BSD license:
 *
 * Copyright 2009-2010 Andrea Leofreddi <a.leofreddi@itcharm.com>. All rights reserved.
 *
 * Redistribution and use in source and binary forms, with or without modification, are
 * permitted provided that the following conditions are met:
 *
 *    1. Redistributions of source code must retain the above copyright notice, this list of
 *       conditions and the following disclaimer.
 *
 *    2. Redistributions in binary form must reproduce the above copyright notice, this list
 *       of conditions and the following disclaimer in the documentation and/or other materials
 *       provided with the distribution.
 *
 * THIS SOFTWARE IS PROVIDED BY Andrea Leofreddi ``AS IS'' AND ANY EXPRESS OR IMPLIED
 * WARRANTIES, INCLUDING, BUT NOT LIMITED TO, THE IMPLIED WARRANTIES OF MERCHANTABILITY AND
 * FITNESS FOR A PARTICULAR PURPOSE ARE DISCLAIMED. IN NO EVENT SHALL Andrea Leofreddi OR
 * CONTRIBUTORS BE LIABLE FOR ANY DIRECT, INDIRECT, INCIDENTAL, SPECIAL, EXEMPLARY, OR
 * CONSEQUENTIAL DAMAGES (INCLUDING, BUT NOT LIMITED TO, PROCUREMENT OF SUBSTITUTE GOODS OR
 * SERVICES; LOSS OF USE, DATA, OR PROFITS; OR BUSINESS INTERRUPTION) HOWEVER CAUSED AND ON
 * ANY THEORY OF LIABILITY, WHETHER IN CONTRACT, STRICT LIABILITY, OR TORT (INCLUDING
 * NEGLIGENCE OR OTHERWISE) ARISING IN ANY WAY OUT OF THE USE OF THIS SOFTWARE, EVEN IF
 * ADVISED OF THE POSSIBILITY OF SUCH DAMAGE.
 *
 * The views and conclusions contained in the software and documentation are those of the
 * authors and should not be interpreted as representing official policies, either expressed
 * or implied, of Andrea Leofreddi.
 */

var root = document.documentElement;

var state = 'none', stateTarget, stateOrigin, stateTf;

setupHandlers(root);

/**
 * Register handlers
 */
function setupHandlers(root){
	setAttributes(root, {
		"onmouseup" : "add(evt)",
		"onmousedown" : "handleMouseDown(evt)",
		"onmousemove" : "handleMouseMove(evt)",
		"onmouseup" : "handleMouseUp(evt)",
		//"onmouseout" : "handleMouseUp(evt)", // Decomment this to stop the pan functionality when dragging out of the SVG element
	});

	if(navigator.userAgent.toLowerCase().indexOf('webkit') >= 0)
		window.addEventListener('mousewheel', handleMouseWheel, false); // Chrome/Safari
	else
		window.addEventListener('DOMMouseScroll', handleMouseWheel, false); // Others

	var g = svgDoc.getElementById("svg");
	g.width = "100%";
	g.height = "100%";
}

/**
 * Instance an SVGPoint object with given event coordinates.
 */
function getEventPoint(evt) {
	var p = root.createSVGPoint();

	p.x = evt.clientX;
	p.y = evt.clientY;

	return p;
}

/**
 * Sets the current transform matrix of an element.
 */
function setCTM(element, matrix) {
	var s = "matrix(" + matrix.a + "," + matrix.b + "," + matrix.c + "," + matrix.d + "," + matrix.e + "," + matrix.f + ")";

	element.setAttribute("transform", s);
}

/**
 * Dumps a matrix to a string (useful for debug).
 */
function dumpMatrix(matrix) {
	var s = "[ " + matrix.a + ", " + matrix.c + ", " + matrix.e + "\n  " + matrix.b + ", " + matrix.d + ", " + matrix.f + "\n  0, 0, 1 ]";

	return s;
}

/**
 * Sets attributes of an element.
 */
function setAttributes(element, attributes){
	for (i in attributes)
		element.setAttributeNS(null, i, attributes[i]);
}

/**
 * Handle mouse move event.
 */
function handleMouseWheel(evt) {
	if(evt.preventDefault)
		evt.preventDefault();

	evt.returnValue = false;

	var svgDoc = evt.target.ownerDocument;

	var delta;

	if(evt.wheelDelta)
		delta = evt.wheelDelta / 3600; // Chrome/Safari
	else
		delta = evt.detail / -90; // Mozilla

	var z = 1 + delta; // Zoom factor: 0.9/1.1

	var g = svgDoc.getElementById("viewport");

	var p = getEventPoint(evt);

	p = p.matrixTransform(g.getCTM().inverse());

	// Compute new scale matrix in current mouse position
	var k = root.createSVGMatrix().translate(p.x, p.y).scale(z).translate(-p.x, -p.y);

        setCTM(g, g.getCTM().multiply(k));

	stateTf = stateTf.multiply(k.inverse());
}

/**
 * Handle mouse move event.
 */
function handleMouseMove(evt) {
	if(evt.preventDefault)
		evt.preventDefault();

	evt.returnValue = false;

	var svgDoc = evt.target.ownerDocument;

	var g = svgDoc.getElementById("viewport");

	if(state == 'pan') {
		// Pan mode
		var p = getEventPoint(evt).matrixTransform(stateTf);

		setCTM(g, stateTf.inverse().translate(p.x - stateOrigin.x, p.y - stateOrigin.y));
	} else if(state == 'move') {
		// Move mode
		var p = getEventPoint(evt).matrixTransform(g.getCTM().inverse());

		setCTM(stateTarget, root.createSVGMatrix().translate(p.x - stateOrigin.x, p.y - stateOrigin.y).multiply(g.getCTM().inverse()).multiply(stateTarget.getCTM()));

		stateOrigin = p;
	}
}

/**
 * Handle click event.
 */
function handleMouseDown(evt) {
	if(evt.preventDefault)
		evt.preventDefault();

	evt.returnValue = false;

	var svgDoc = evt.target.ownerDocument;

	var g = svgDoc.getElementById("viewport");

	if(true || evt.target.tagName == "svg") {
		// Pan mode
		state = 'pan';

		stateTf = g.getCTM().inverse();

		stateOrigin = getEventPoint(evt).matrixTransform(stateTf);
	} else {
		// Move mode
		state = 'move';

		stateTarget = evt.target;

		stateTf = g.getCTM().inverse();

		stateOrigin = getEventPoint(evt).matrixTransform(stateTf);
	}
}

/**
 * Handle mouse button release event.
 */
function handleMouseUp(evt) {
	if(evt.preventDefault)
		evt.preventDefault();

	evt.returnValue = false;

	var svgDoc = evt.target.ownerDocument;

	if(state == 'pan' || state == 'move') {
		// Quit pan mode
		state = '';
	}
}

]]></script>
<g id="viewport" transform="translate(0,0)">
<g id="viewport" class="graph" transform="scale(1 1) rotate(0) translate(4 2463)">
<title>../../../bazel&#45;bin/profiler/jemalloc/heap&#45;profiling/main; 48399392 B</title>
<polygon fill="white" stroke="none" points="-4,4 -4,-2463 1021,-2463 1021,4 -4,4"/>
<!-- Legend -->
<g id="node1" class="node">
<title>Legend</title>
<text text-anchor="start" x="8" y="-2435.8" font-family="Times,serif" font-size="24.00">../../../bazel&#45;bin/profiler/jemalloc/heap&#45;profiling/main</text>
<text text-anchor="start" x="8" y="-2409.8" font-family="Times,serif" font-size="24.00">Total B: 48399392</text>
<text text-anchor="start" x="8" y="-2383.8" font-family="Times,serif" font-size="24.00">Focusing on: 48399392</text>
<text text-anchor="start" x="8" y="-2357.8" font-family="Times,serif" font-size="24.00">Dropped nodes with &lt;= 241996 abs(B)</text>
<text text-anchor="start" x="8" y="-2331.8" font-family="Times,serif" font-size="24.00">Dropped edges with &lt;= 48399 B</text>
</g>
<!-- N1 -->
<g id="node2" class="node">
<title>N1</title>
<polygon fill="none" stroke="black" points="785,-2184 647,-2184 647,-2149 785,-2149 785,-2184"/>
<text text-anchor="middle" x="716" y="-2173.6" font-family="Times,serif" font-size="8.00">__libc_init_first@@GLIBC_2.2.5</text>
<text text-anchor="end" x="777" y="-2164.6" font-family="Times,serif" font-size="8.00">0 (0.0%)</text>
<text text-anchor="end" x="777" y="-2155.6" font-family="Times,serif" font-size="8.00">of 48399392 (100.0%)</text>
</g>
<!-- N10 -->
<g id="node11" class="node">
<title>N10</title>
<polygon fill="none" stroke="black" points="770,-2098 662,-2098 662,-2063 770,-2063 770,-2098"/>
<text text-anchor="middle" x="716" y="-2087.6" font-family="Times,serif" font-size="8.00">main</text>
<text text-anchor="end" x="762" y="-2078.6" font-family="Times,serif" font-size="8.00">0 (0.0%)</text>
<text text-anchor="end" x="762" y="-2069.6" font-family="Times,serif" font-size="8.00">of 48399392 (100.0%)</text>
</g>
<!-- N1&#45;&gt;N10 -->
<g id="edge7" class="edge">
<title>N1&#45;&gt;N10</title>
<path fill="none" stroke="black" stroke-width="2" d="M716,-2148.5C716,-2137.34 716,-2122.48 716,-2109.59"/>
<polygon fill="black" stroke="black" stroke-width="2" points="719.5,-2111.5 716,-2101.5 712.5,-2111.5 719.5,-2111.5"/>
<text text-anchor="middle" x="752.5" y="-2119.8" font-family="Times,serif" font-size="14.00">48399392</text>
</g>
<!-- N2 -->
<g id="node3" class="node">
<title>N2</title>
<polygon fill="none" stroke="black" points="786,-2270 646,-2270 646,-2235 786,-2235 786,-2270"/>
<text text-anchor="middle" x="716" y="-2259.6" font-family="Times,serif" font-size="8.00">__libc_start_main@GLIBC_2.2.5</text>
<text text-anchor="end" x="778" y="-2250.6" font-family="Times,serif" font-size="8.00">0 (0.0%)</text>
<text text-anchor="end" x="778" y="-2241.6" font-family="Times,serif" font-size="8.00">of 48399392 (100.0%)</text>
</g>
<!-- N2&#45;&gt;N1 -->
<g id="edge14" class="edge">
<title>N2&#45;&gt;N1</title>
<path fill="none" stroke="black" stroke-width="2" d="M716,-2234.5C716,-2223.34 716,-2208.48 716,-2195.59"/>
<polygon fill="black" stroke="black" stroke-width="2" points="719.5,-2197.5 716,-2187.5 712.5,-2197.5 719.5,-2197.5"/>
<text text-anchor="middle" x="752.5" y="-2205.8" font-family="Times,serif" font-size="14.00">48399392</text>
</g>
<!-- N3 -->
<g id="node4" class="node">
<title>N3</title>
<polygon fill="none" stroke="black" points="770,-2407.5 662,-2407.5 662,-2372.5 770,-2372.5 770,-2407.5"/>
<text text-anchor="middle" x="716" y="-2397.1" font-family="Times,serif" font-size="8.00">_start</text>
<text text-anchor="end" x="762" y="-2388.1" font-family="Times,serif" font-size="8.00">0 (0.0%)</text>
<text text-anchor="end" x="762" y="-2379.1" font-family="Times,serif" font-size="8.00">of 48399392 (100.0%)</text>
</g>
<!-- N3&#45;&gt;N2 -->
<g id="edge10" class="edge">
<title>N3&#45;&gt;N2</title>
<path fill="none" stroke="black" stroke-width="2" d="M716,-2372.11C716,-2349.47 716,-2308.98 716,-2281.68"/>
<polygon fill="black" stroke="black" stroke-width="2" points="719.5,-2283.2 716,-2273.2 712.5,-2283.2 719.5,-2283.2"/>
<text text-anchor="middle" x="752.5" y="-2291.8" font-family="Times,serif" font-size="14.00">48399392</text>
</g>
<!-- N4 -->
<g id="node5" class="node">
<title>N4</title>
<polygon fill="none" stroke="black" points="770,-593 662,-593 662,-549 770,-549 770,-593"/>
<text text-anchor="middle" x="716" y="-582.6" font-family="Times,serif" font-size="8.00">imalloc</text>
<text text-anchor="middle" x="716" y="-573.6" font-family="Times,serif" font-size="8.00">(inline)</text>
<text text-anchor="end" x="762" y="-564.6" font-family="Times,serif" font-size="8.00">0 (0.0%)</text>
<text text-anchor="end" x="762" y="-555.6" font-family="Times,serif" font-size="8.00">of 48399392 (100.0%)</text>
</g>
<!-- N5 -->
<g id="node6" class="node">
<title>N5</title>
<polygon fill="none" stroke="black" points="770,-498 662,-498 662,-454 770,-454 770,-498"/>
<text text-anchor="middle" x="716" y="-487.6" font-family="Times,serif" font-size="8.00">imalloc_body</text>
<text text-anchor="middle" x="716" y="-478.6" font-family="Times,serif" font-size="8.00">(inline)</text>
<text text-anchor="end" x="762" y="-469.6" font-family="Times,serif" font-size="8.00">0 (0.0%)</text>
<text text-anchor="end" x="762" y="-460.6" font-family="Times,serif" font-size="8.00">of 48399392 (100.0%)</text>
</g>
<!-- N4&#45;&gt;N5 -->
<g id="edge6" class="edge">
<title>N4&#45;&gt;N5</title>
<path fill="none" stroke="black" stroke-width="2" stroke-dasharray="5,2" d="M716,-548.9C716,-537.33 716,-522.73 716,-509.72"/>
<polygon fill="black" stroke="black" stroke-width="2" points="719.5,-511.37 716,-501.37 712.5,-511.37 719.5,-511.37"/>
<text text-anchor="middle" x="752.5" y="-519.8" font-family="Times,serif" font-size="14.00">48399392</text>
</g>
<!-- N11 -->
<g id="node12" class="node">
<title>N11</title>
<polygon fill="none" stroke="black" points="770,-403 662,-403 662,-359 770,-359 770,-403"/>
<text text-anchor="middle" x="716" y="-392.6" font-family="Times,serif" font-size="8.00">prof_alloc_prep</text>
<text text-anchor="middle" x="716" y="-383.6" font-family="Times,serif" font-size="8.00">(inline)</text>
<text text-anchor="end" x="762" y="-374.6" font-family="Times,serif" font-size="8.00">0 (0.0%)</text>
<text text-anchor="end" x="762" y="-365.6" font-family="Times,serif" font-size="8.00">of 48399392 (100.0%)</text>
</g>
<!-- N5&#45;&gt;N11 -->
<g id="edge5" class="edge">
<title>N5&#45;&gt;N11</title>
<path fill="none" stroke="black" stroke-width="2" stroke-dasharray="5,2" d="M716,-453.9C716,-442.33 716,-427.73 716,-414.72"/>
<polygon fill="black" stroke="black" stroke-width="2" points="719.5,-416.37 716,-406.37 712.5,-416.37 719.5,-416.37"/>
<text text-anchor="middle" x="752.5" y="-424.8" font-family="Times,serif" font-size="14.00">48399392</text>
</g>
<!-- N6 -->
<g id="node7" class="node">
<title>N6</title>
<polygon fill="none" stroke="black" points="770,-2012 662,-2012 662,-1977 770,-1977 770,-2012"/>
<text text-anchor="middle" x="716" y="-2001.6" font-family="Times,serif" font-size="8.00">insertToTrash</text>
<text text-anchor="end" x="762" y="-1992.6" font-family="Times,serif" font-size="8.00">0 (0.0%)</text>
<text text-anchor="end" x="762" y="-1983.6" font-family="Times,serif" font-size="8.00">of 48399392 (100.0%)</text>
</g>
<!-- N17 -->
<g id="node18" class="node">
<title>N17</title>
<polygon fill="none" stroke="black" points="640,-1926 524,-1926 524,-1882 640,-1882 640,-1926"/>
<text text-anchor="middle" x="582" y="-1915.6" font-family="Times,serif" font-size="8.00">auto</text>
<text text-anchor="middle" x="582" y="-1906.6" font-family="Times,serif" font-size="8.00">createContainer@2756c</text>
<text text-anchor="end" x="632" y="-1897.6" font-family="Times,serif" font-size="8.00">0 (0.0%)</text>
<text text-anchor="end" x="632" y="-1888.6" font-family="Times,serif" font-size="8.00">of 20600179 (42.6%)</text>
</g>
<!-- N6&#45;&gt;N17 -->
<g id="edge18" class="edge">
<title>N6&#45;&gt;N17</title>
<path fill="none" stroke="black" stroke-width="2" d="M671.47,-1976.61C660.47,-1971.62 648.98,-1965.68 639,-1959 628.53,-1951.99 618.18,-1943 609.24,-1934.38"/>
<polygon fill="black" stroke="black" stroke-width="2" points="612.84,-1933.02 603.29,-1928.43 607.89,-1937.97 612.84,-1933.02"/>
<text text-anchor="middle" x="675.5" y="-1947.8" font-family="Times,serif" font-size="14.00">20600179</text>
</g>
<!-- N22 -->
<g id="node23" class="node">
<title>N22</title>
<polygon fill="none" stroke="black" points="774,-1926 658,-1926 658,-1882 774,-1882 774,-1926"/>
<text text-anchor="middle" x="716" y="-1915.6" font-family="Times,serif" font-size="8.00">auto</text>
<text text-anchor="middle" x="716" y="-1906.6" font-family="Times,serif" font-size="8.00">createContainer@2787c</text>
<text text-anchor="end" x="766" y="-1897.6" font-family="Times,serif" font-size="8.00">0 (0.0%)</text>
<text text-anchor="end" x="766" y="-1888.6" font-family="Times,serif" font-size="8.00">of 14680736 (30.3%)</text>
</g>
<!-- N6&#45;&gt;N22 -->
<g id="edge24" class="edge">
<title>N6&#45;&gt;N22</title>
<path fill="none" stroke="black" stroke-width="1.82" d="M716,-1976.85C716,-1965.78 716,-1950.86 716,-1937.49"/>
<polygon fill="black" stroke="black" stroke-width="1.82" points="719.5,-1939.02 716,-1929.02 712.5,-1939.02 719.5,-1939.02"/>
<text text-anchor="middle" x="752.5" y="-1947.8" font-family="Times,serif" font-size="14.00">14680736</text>
</g>
<!-- N27 -->
<g id="node28" class="node">
<title>N27</title>
<polygon fill="none" stroke="black" points="909.5,-1926 792.5,-1926 792.5,-1882 909.5,-1882 909.5,-1926"/>
<text text-anchor="middle" x="851" y="-1915.6" font-family="Times,serif" font-size="8.00">auto</text>
<text text-anchor="middle" x="851" y="-1906.6" font-family="Times,serif" font-size="8.00">createContainer@27684</text>
<text text-anchor="end" x="901.5" y="-1897.6" font-family="Times,serif" font-size="8.00">0 (0.0%)</text>
<text text-anchor="end" x="901.5" y="-1888.6" font-family="Times,serif" font-size="8.00">of 13118477 (27.1%)</text>
</g>
<!-- N6&#45;&gt;N27 -->
<g id="edge28" class="edge">
<title>N6&#45;&gt;N27</title>
<path fill="none" stroke="black" stroke-width="1.63" d="M760.49,-1976.55C771.49,-1971.56 782.99,-1965.64 793,-1959 803.71,-1951.9 814.33,-1942.79 823.49,-1934.09"/>
<polygon fill="black" stroke="black" stroke-width="1.63" points="825.01,-1937.5 829.7,-1928 820.11,-1932.5 825.01,-1937.5"/>
<text text-anchor="middle" x="848.5" y="-1947.8" font-family="Times,serif" font-size="14.00">13118477</text>
</g>
<!-- N7 -->
<g id="node8" class="node">
<title>N7</title>
<polygon fill="none" stroke="black" points="770,-679 662,-679 662,-644 770,-644 770,-679"/>
<text text-anchor="middle" x="716" y="-668.6" font-family="Times,serif" font-size="8.00">je_malloc_default</text>
<text text-anchor="end" x="762" y="-659.6" font-family="Times,serif" font-size="8.00">0 (0.0%)</text>
<text text-anchor="end" x="762" y="-650.6" font-family="Times,serif" font-size="8.00">of 48399392 (100.0%)</text>
</g>
<!-- N7&#45;&gt;N4 -->
<g id="edge12" class="edge">
<title>N7&#45;&gt;N4</title>
<path fill="none" stroke="black" stroke-width="2" stroke-dasharray="5,2" d="M716,-643.85C716,-632.78 716,-617.86 716,-604.49"/>
<polygon fill="black" stroke="black" stroke-width="2" points="719.5,-606.3 716,-596.3 712.5,-606.3 719.5,-606.3"/>
<text text-anchor="middle" x="752.5" y="-614.8" font-family="Times,serif" font-size="14.00">48399392</text>
</g>
<!-- N8 -->
<g id="node9" class="node">
<title>N8</title>
<polygon fill="none" stroke="black" points="770,-222 662,-222 662,-187 770,-187 770,-222"/>
<text text-anchor="middle" x="716" y="-211.6" font-family="Times,serif" font-size="8.00">je_prof_backtrace</text>
<text text-anchor="end" x="762" y="-202.6" font-family="Times,serif" font-size="8.00">0 (0.0%)</text>
<text text-anchor="end" x="762" y="-193.6" font-family="Times,serif" font-size="8.00">of 48399392 (100.0%)</text>
</g>
<!-- N12 -->
<g id="node13" class="node">
<title>N12</title>
<polygon fill="none" stroke="black" points="1017,-136 415,-136 415,0 1017,0 1017,-136"/>
<text text-anchor="middle" x="716" y="-85.6" font-family="Times,serif" font-size="58.00">prof_backtrace_impl</text>
<text text-anchor="end" x="1009" y="-21.6" font-family="Times,serif" font-size="58.00">48399392 (100.0%)</text>
</g>
<!-- N8&#45;&gt;N12 -->
<g id="edge11" class="edge">
<title>N8&#45;&gt;N12</title>
<path fill="none" stroke="black" stroke-width="2" d="M716,-186.74C716,-176.47 716,-162.5 716,-147.77"/>
<polygon fill="black" stroke="black" stroke-width="2" points="719.5,-149.43 716,-139.43 712.5,-149.43 719.5,-149.43"/>
<text text-anchor="middle" x="752.5" y="-157.8" font-family="Times,serif" font-size="14.00">48399392</text>
</g>
<!-- N9 -->
<g id="node10" class="node">
<title>N9</title>
<polygon fill="none" stroke="black" points="770,-308 662,-308 662,-273 770,-273 770,-308"/>
<text text-anchor="middle" x="716" y="-297.6" font-family="Times,serif" font-size="8.00">je_prof_tctx_create</text>
<text text-anchor="end" x="762" y="-288.6" font-family="Times,serif" font-size="8.00">0 (0.0%)</text>
<text text-anchor="end" x="762" y="-279.6" font-family="Times,serif" font-size="8.00">of 48399392 (100.0%)</text>
</g>
<!-- N9&#45;&gt;N8 -->
<g id="edge3" class="edge">
<title>N9&#45;&gt;N8</title>
<path fill="none" stroke="black" stroke-width="2" d="M716,-272.5C716,-261.34 716,-246.48 716,-233.59"/>
<polygon fill="black" stroke="black" stroke-width="2" points="719.5,-235.5 716,-225.5 712.5,-235.5 719.5,-235.5"/>
<text text-anchor="middle" x="752.5" y="-243.8" font-family="Times,serif" font-size="14.00">48399392</text>
</g>
<!-- N10&#45;&gt;N6 -->
<g id="edge8" class="edge">
<title>N10&#45;&gt;N6</title>
<path fill="none" stroke="black" stroke-width="2" d="M716,-2062.5C716,-2051.34 716,-2036.48 716,-2023.59"/>
<polygon fill="black" stroke="black" stroke-width="2" points="719.5,-2025.5 716,-2015.5 712.5,-2025.5 719.5,-2025.5"/>
<text text-anchor="middle" x="752.5" y="-2033.8" font-family="Times,serif" font-size="14.00">48399392</text>
</g>
<!-- N11&#45;&gt;N9 -->
<g id="edge9" class="edge">
<title>N11&#45;&gt;N9</title>
<path fill="none" stroke="black" stroke-width="2" d="M716,-358.58C716,-346.87 716,-332.23 716,-319.61"/>
<polygon fill="black" stroke="black" stroke-width="2" points="719.5,-321.33 716,-311.33 712.5,-321.33 719.5,-321.33"/>
<text text-anchor="middle" x="752.5" y="-329.8" font-family="Times,serif" font-size="14.00">48399392</text>
</g>
<!-- N13 -->
<g id="node14" class="node">
<title>N13</title>
<polygon fill="none" stroke="black" points="770,-878 662,-878 662,-825 770,-825 770,-878"/>
<text text-anchor="middle" x="716" y="-867.6" font-family="Times,serif" font-size="8.00">std</text>
<text text-anchor="middle" x="716" y="-858.6" font-family="Times,serif" font-size="8.00">__new_allocator</text>
<text text-anchor="middle" x="716" y="-849.6" font-family="Times,serif" font-size="8.00">allocate</text>
<text text-anchor="end" x="762" y="-840.6" font-family="Times,serif" font-size="8.00">0 (0.0%)</text>
<text text-anchor="end" x="762" y="-831.6" font-family="Times,serif" font-size="8.00">of 48399392 (100.0%)</text>
</g>
<!-- N16 -->
<g id="node17" class="node">
<title>N16</title>
<polygon fill="none" stroke="black" points="770,-774 662,-774 662,-730 770,-730 770,-774"/>
<text text-anchor="middle" x="716" y="-763.6" font-family="Times,serif" font-size="8.00">void*</text>
<text text-anchor="middle" x="716" y="-754.6" font-family="Times,serif" font-size="8.00">fallback_impl</text>
<text text-anchor="end" x="762" y="-745.6" font-family="Times,serif" font-size="8.00">0 (0.0%)</text>
<text text-anchor="end" x="762" y="-736.6" font-family="Times,serif" font-size="8.00">of 48399392 (100.0%)</text>
</g>
<!-- N13&#45;&gt;N16 -->
<g id="edge2" class="edge">
<title>N13&#45;&gt;N16</title>
<path fill="none" stroke="black" stroke-width="2" d="M716,-824.63C716,-812.74 716,-798.51 716,-785.88"/>
<polygon fill="black" stroke="black" stroke-width="2" points="719.5,-787.41 716,-777.41 712.5,-787.41 719.5,-787.41"/>
<text text-anchor="middle" x="752.5" y="-795.8" font-family="Times,serif" font-size="14.00">48399392</text>
</g>
<!-- N14 -->
<g id="node15" class="node">
<title>N14</title>
<polygon fill="none" stroke="black" points="770,-991 662,-991 662,-929 770,-929 770,-991"/>
<text text-anchor="middle" x="716" y="-980.6" font-family="Times,serif" font-size="8.00">std</text>
<text text-anchor="middle" x="716" y="-971.6" font-family="Times,serif" font-size="8.00">allocator</text>
<text text-anchor="middle" x="716" y="-962.6" font-family="Times,serif" font-size="8.00">allocate</text>
<text text-anchor="middle" x="716" y="-953.6" font-family="Times,serif" font-size="8.00">(inline)</text>
<text text-anchor="end" x="762" y="-944.6" font-family="Times,serif" font-size="8.00">0 (0.0%)</text>
<text text-anchor="end" x="762" y="-935.6" font-family="Times,serif" font-size="8.00">of 48399392 (100.0%)</text>
</g>
<!-- N14&#45;&gt;N13 -->
<g id="edge4" class="edge">
<title>N14&#45;&gt;N13</title>
<path fill="none" stroke="black" stroke-width="2" d="M716,-928.77C716,-916.62 716,-902.49 716,-889.72"/>
<polygon fill="black" stroke="black" stroke-width="2" points="719.5,-891.5 716,-881.5 712.5,-891.5 719.5,-891.5"/>
<text text-anchor="middle" x="752.5" y="-899.8" font-family="Times,serif" font-size="14.00">48399392</text>
</g>
<!-- N15 -->
<g id="node16" class="node">
<title>N15</title>
<polygon fill="none" stroke="black" points="770,-1095 662,-1095 662,-1042 770,-1042 770,-1095"/>
<text text-anchor="middle" x="716" y="-1084.6" font-family="Times,serif" font-size="8.00">std</text>
<text text-anchor="middle" x="716" y="-1075.6" font-family="Times,serif" font-size="8.00">allocator_traits</text>
<text text-anchor="middle" x="716" y="-1066.6" font-family="Times,serif" font-size="8.00">allocate</text>
<text text-anchor="end" x="762" y="-1057.6" font-family="Times,serif" font-size="8.00">0 (0.0%)</text>
<text text-anchor="end" x="762" y="-1048.6" font-family="Times,serif" font-size="8.00">of 48399392 (100.0%)</text>
</g>
<!-- N15&#45;&gt;N14 -->
<g id="edge1" class="edge">
<title>N15&#45;&gt;N14</title>
<path fill="none" stroke="black" stroke-width="2" stroke-dasharray="5,2" d="M716,-1041.72C716,-1030.01 716,-1015.85 716,-1002.69"/>
<polygon fill="black" stroke="black" stroke-width="2" points="719.5,-1004.49 716,-994.49 712.5,-1004.49 719.5,-1004.49"/>
<text text-anchor="middle" x="752.5" y="-1012.8" font-family="Times,serif" font-size="14.00">48399392</text>
</g>
<!-- N16&#45;&gt;N7 -->
<g id="edge13" class="edge">
<title>N16&#45;&gt;N7</title>
<path fill="none" stroke="black" stroke-width="2" d="M716,-729.58C716,-717.87 716,-703.23 716,-690.61"/>
<polygon fill="black" stroke="black" stroke-width="2" points="719.5,-692.33 716,-682.33 712.5,-692.33 719.5,-692.33"/>
<text text-anchor="middle" x="752.5" y="-700.8" font-family="Times,serif" font-size="14.00">48399392</text>
</g>
<!-- N21 -->
<g id="node22" class="node">
<title>N21</title>
<polygon fill="none" stroke="black" points="636.5,-1826.5 533.5,-1826.5 533.5,-1773.5 636.5,-1773.5 636.5,-1826.5"/>
<text text-anchor="middle" x="585" y="-1816.1" font-family="Times,serif" font-size="8.00">std</text>
<text text-anchor="middle" x="585" y="-1807.1" font-family="Times,serif" font-size="8.00">vector</text>
<text text-anchor="middle" x="585" y="-1798.1" font-family="Times,serif" font-size="8.00">push_back</text>
<text text-anchor="end" x="628.5" y="-1789.1" font-family="Times,serif" font-size="8.00">0 (0.0%)</text>
<text text-anchor="end" x="628.5" y="-1780.1" font-family="Times,serif" font-size="8.00">of 20600179 (42.6%)</text>
</g>
<!-- N17&#45;&gt;N21 -->
<g id="edge17" class="edge">
<title>N17&#45;&gt;N21</title>
<path fill="none" stroke="black" stroke-width="2" d="M582.62,-1881.87C582.99,-1869.25 583.47,-1852.87 583.91,-1838.15"/>
<polygon fill="black" stroke="black" stroke-width="2" points="587.36,-1839.94 584.15,-1829.84 580.36,-1839.73 587.36,-1839.94"/>
<text text-anchor="middle" x="620.5" y="-1852.8" font-family="Times,serif" font-size="14.00">20600179</text>
</g>
<!-- N18 -->
<g id="node19" class="node">
<title>N18</title>
<polygon fill="none" stroke="black" points="637.5,-1421 534.5,-1421 534.5,-1368 637.5,-1368 637.5,-1421"/>
<text text-anchor="middle" x="586" y="-1410.6" font-family="Times,serif" font-size="8.00">std</text>
<text text-anchor="middle" x="586" y="-1401.6" font-family="Times,serif" font-size="8.00">_Vector_base</text>
<text text-anchor="middle" x="586" y="-1392.6" font-family="Times,serif" font-size="8.00">_M_allocate</text>
<text text-anchor="end" x="629.5" y="-1383.6" font-family="Times,serif" font-size="8.00">0 (0.0%)</text>
<text text-anchor="end" x="629.5" y="-1374.6" font-family="Times,serif" font-size="8.00">of 20600179 (42.6%)</text>
</g>
<!-- N18&#45;&gt;N15 -->
<g id="edge20" class="edge">
<title>N18&#45;&gt;N15</title>
<path fill="none" stroke="black" stroke-width="2" d="M579.44,-1367.61C571.79,-1332.24 562.5,-1267.46 582,-1217 600.01,-1170.39 640.35,-1129.43 672.09,-1102.57"/>
<polygon fill="black" stroke="black" stroke-width="2" points="672.98,-1106.38 678.45,-1097.31 668.52,-1100.98 672.98,-1106.38"/>
<text text-anchor="middle" x="618.5" y="-1244.3" font-family="Times,serif" font-size="14.00">20600179</text>
</g>
<!-- N19 -->
<g id="node20" class="node">
<title>N19</title>
<polygon fill="none" stroke="black" points="637.5,-1600.5 534.5,-1600.5 534.5,-1547.5 637.5,-1547.5 637.5,-1600.5"/>
<text text-anchor="middle" x="586" y="-1590.1" font-family="Times,serif" font-size="8.00">std</text>
<text text-anchor="middle" x="586" y="-1581.1" font-family="Times,serif" font-size="8.00">vector</text>
<text text-anchor="middle" x="586" y="-1572.1" font-family="Times,serif" font-size="8.00">_M_realloc_insert</text>
<text text-anchor="end" x="629.5" y="-1563.1" font-family="Times,serif" font-size="8.00">0 (0.0%)</text>
<text text-anchor="end" x="629.5" y="-1554.1" font-family="Times,serif" font-size="8.00">of 20600179 (42.6%)</text>
</g>
<!-- N19&#45;&gt;N18 -->
<g id="edge15" class="edge">
<title>N19&#45;&gt;N18</title>
<path fill="none" stroke="black" stroke-width="2" d="M586,-1547.19C586,-1517.09 586,-1467.08 586,-1432.77"/>
<polygon fill="black" stroke="black" stroke-width="2" points="589.5,-1434.37 586,-1424.37 582.5,-1434.37 589.5,-1434.37"/>
<text text-anchor="middle" x="622.5" y="-1513.8" font-family="Times,serif" font-size="14.00">20600179</text>
</g>
<!-- N20 -->
<g id="node21" class="node">
<title>N20</title>
<polygon fill="none" stroke="black" points="637.5,-1713.5 534.5,-1713.5 534.5,-1660.5 637.5,-1660.5 637.5,-1713.5"/>
<text text-anchor="middle" x="586" y="-1703.1" font-family="Times,serif" font-size="8.00">std</text>
<text text-anchor="middle" x="586" y="-1694.1" font-family="Times,serif" font-size="8.00">vector</text>
<text text-anchor="middle" x="586" y="-1685.1" font-family="Times,serif" font-size="8.00">emplace_back</text>
<text text-anchor="end" x="629.5" y="-1676.1" font-family="Times,serif" font-size="8.00">0 (0.0%)</text>
<text text-anchor="end" x="629.5" y="-1667.1" font-family="Times,serif" font-size="8.00">of 20600179 (42.6%)</text>
</g>
<!-- N20&#45;&gt;N19 -->
<g id="edge19" class="edge">
<title>N20&#45;&gt;N19</title>
<path fill="none" stroke="black" stroke-width="2" d="M586,-1660.26C586,-1646.07 586,-1628.2 586,-1612.49"/>
<polygon fill="black" stroke="black" stroke-width="2" points="589.5,-1614.02 586,-1604.02 582.5,-1614.02 589.5,-1614.02"/>
<text text-anchor="middle" x="622.5" y="-1626.8" font-family="Times,serif" font-size="14.00">20600179</text>
</g>
<!-- N21&#45;&gt;N20 -->
<g id="edge16" class="edge">
<title>N21&#45;&gt;N20</title>
<path fill="none" stroke="black" stroke-width="2" d="M585.23,-1773.26C585.36,-1759.07 585.52,-1741.2 585.66,-1725.49"/>
<polygon fill="black" stroke="black" stroke-width="2" points="589.15,-1727.05 585.74,-1717.02 582.15,-1726.98 589.15,-1727.05"/>
<text text-anchor="middle" x="622.5" y="-1739.8" font-family="Times,serif" font-size="14.00">20600179</text>
</g>
<!-- N26 -->
<g id="node27" class="node">
<title>N26</title>
<polygon fill="none" stroke="black" points="767.5,-1831 664.5,-1831 664.5,-1769 767.5,-1769 767.5,-1831"/>
<text text-anchor="middle" x="716" y="-1820.6" font-family="Times,serif" font-size="8.00">std</text>
<text text-anchor="middle" x="716" y="-1811.6" font-family="Times,serif" font-size="8.00">__cxx11</text>
<text text-anchor="middle" x="716" y="-1802.6" font-family="Times,serif" font-size="8.00">list</text>
<text text-anchor="middle" x="716" y="-1793.6" font-family="Times,serif" font-size="8.00">push_back</text>
<text text-anchor="end" x="759.5" y="-1784.6" font-family="Times,serif" font-size="8.00">0 (0.0%)</text>
<text text-anchor="end" x="759.5" y="-1775.6" font-family="Times,serif" font-size="8.00">of 14680736 (30.3%)</text>
</g>
<!-- N22&#45;&gt;N26 -->
<g id="edge25" class="edge">
<title>N22&#45;&gt;N26</title>
<path fill="none" stroke="black" stroke-width="1.82" d="M716,-1881.87C716,-1870.58 716,-1856.29 716,-1842.87"/>
<polygon fill="black" stroke="black" stroke-width="1.82" points="719.5,-1844.15 716,-1834.15 712.5,-1844.15 719.5,-1844.15"/>
<text text-anchor="middle" x="752.5" y="-1852.8" font-family="Times,serif" font-size="14.00">14680736</text>
</g>
<!-- N23 -->
<g id="node24" class="node">
<title>N23</title>
<polygon fill="none" stroke="black" points="767.5,-1279 664.5,-1279 664.5,-1217 767.5,-1217 767.5,-1279"/>
<text text-anchor="middle" x="716" y="-1268.6" font-family="Times,serif" font-size="8.00">std</text>
<text text-anchor="middle" x="716" y="-1259.6" font-family="Times,serif" font-size="8.00">__cxx11</text>
<text text-anchor="middle" x="716" y="-1250.6" font-family="Times,serif" font-size="8.00">_List_base</text>
<text text-anchor="middle" x="716" y="-1241.6" font-family="Times,serif" font-size="8.00">_M_get_node</text>
<text text-anchor="end" x="759.5" y="-1232.6" font-family="Times,serif" font-size="8.00">0 (0.0%)</text>
<text text-anchor="end" x="759.5" y="-1223.6" font-family="Times,serif" font-size="8.00">of 14680736 (30.3%)</text>
</g>
<!-- N23&#45;&gt;N15 -->
<g id="edge22" class="edge">
<title>N23&#45;&gt;N15</title>
<path fill="none" stroke="black" stroke-width="1.82" d="M716,-1216.89C716,-1186.5 716,-1139.5 716,-1106.78"/>
<polygon fill="black" stroke="black" stroke-width="1.82" points="719.5,-1108.18 716,-1098.18 712.5,-1108.18 719.5,-1108.18"/>
<text text-anchor="middle" x="752.5" y="-1168.8" font-family="Times,serif" font-size="14.00">14680736</text>
</g>
<!-- N24 -->
<g id="node25" class="node">
<title>N24</title>
<polygon fill="none" stroke="black" points="767.5,-1605 664.5,-1605 664.5,-1543 767.5,-1543 767.5,-1605"/>
<text text-anchor="middle" x="716" y="-1594.6" font-family="Times,serif" font-size="8.00">std</text>
<text text-anchor="middle" x="716" y="-1585.6" font-family="Times,serif" font-size="8.00">__cxx11</text>
<text text-anchor="middle" x="716" y="-1576.6" font-family="Times,serif" font-size="8.00">list</text>
<text text-anchor="middle" x="716" y="-1567.6" font-family="Times,serif" font-size="8.00">_M_create_node</text>
<text text-anchor="end" x="759.5" y="-1558.6" font-family="Times,serif" font-size="8.00">0 (0.0%)</text>
<text text-anchor="end" x="759.5" y="-1549.6" font-family="Times,serif" font-size="8.00">of 14680736 (30.3%)</text>
</g>
<!-- N24&#45;&gt;N23 -->
<g id="edge26" class="edge">
<title>N24&#45;&gt;N23</title>
<path fill="none" stroke="black" stroke-width="1.82" d="M716,-1542.52C716,-1484.12 716,-1356.39 716,-1290.36"/>
<polygon fill="black" stroke="black" stroke-width="1.82" points="719.5,-1291.92 716,-1281.92 712.5,-1291.92 719.5,-1291.92"/>
<text text-anchor="middle" x="752.5" y="-1461.8" font-family="Times,serif" font-size="14.00">14680736</text>
</g>
<!-- N25 -->
<g id="node26" class="node">
<title>N25</title>
<polygon fill="none" stroke="black" points="767.5,-1718 664.5,-1718 664.5,-1656 767.5,-1656 767.5,-1718"/>
<text text-anchor="middle" x="716" y="-1707.6" font-family="Times,serif" font-size="8.00">std</text>
<text text-anchor="middle" x="716" y="-1698.6" font-family="Times,serif" font-size="8.00">__cxx11</text>
<text text-anchor="middle" x="716" y="-1689.6" font-family="Times,serif" font-size="8.00">list</text>
<text text-anchor="middle" x="716" y="-1680.6" font-family="Times,serif" font-size="8.00">_M_insert</text>
<text text-anchor="end" x="759.5" y="-1671.6" font-family="Times,serif" font-size="8.00">0 (0.0%)</text>
<text text-anchor="end" x="759.5" y="-1662.6" font-family="Times,serif" font-size="8.00">of 14680736 (30.3%)</text>
</g>
<!-- N25&#45;&gt;N24 -->
<g id="edge21" class="edge">
<title>N25&#45;&gt;N24</title>
<path fill="none" stroke="black" stroke-width="1.82" d="M716,-1655.67C716,-1643.68 716,-1629.7 716,-1616.78"/>
<polygon fill="black" stroke="black" stroke-width="1.82" points="719.5,-1618.05 716,-1608.05 712.5,-1618.05 719.5,-1618.05"/>
<text text-anchor="middle" x="752.5" y="-1626.8" font-family="Times,serif" font-size="14.00">14680736</text>
</g>
<!-- N26&#45;&gt;N25 -->
<g id="edge23" class="edge">
<title>N26&#45;&gt;N25</title>
<path fill="none" stroke="black" stroke-width="1.82" d="M716,-1768.67C716,-1756.68 716,-1742.7 716,-1729.78"/>
<polygon fill="black" stroke="black" stroke-width="1.82" points="719.5,-1731.05 716,-1721.05 712.5,-1731.05 719.5,-1731.05"/>
<text text-anchor="middle" x="752.5" y="-1739.8" font-family="Times,serif" font-size="14.00">14680736</text>
</g>
<!-- N30 -->
<g id="node31" class="node">
<title>N30</title>
<polygon fill="none" stroke="black" points="902.5,-1826.5 799.5,-1826.5 799.5,-1773.5 902.5,-1773.5 902.5,-1826.5"/>
<text text-anchor="middle" x="851" y="-1816.1" font-family="Times,serif" font-size="8.00">std</text>
<text text-anchor="middle" x="851" y="-1807.1" font-family="Times,serif" font-size="8.00">deque</text>
<text text-anchor="middle" x="851" y="-1798.1" font-family="Times,serif" font-size="8.00">push_back</text>
<text text-anchor="end" x="894.5" y="-1789.1" font-family="Times,serif" font-size="8.00">0 (0.0%)</text>
<text text-anchor="end" x="894.5" y="-1780.1" font-family="Times,serif" font-size="8.00">of 13118477 (27.1%)</text>
</g>
<!-- N27&#45;&gt;N30 -->
<g id="edge30" class="edge">
<title>N27&#45;&gt;N30</title>
<path fill="none" stroke="black" stroke-width="1.63" d="M851,-1881.87C851,-1869.25 851,-1852.87 851,-1838.15"/>
<polygon fill="black" stroke="black" stroke-width="1.63" points="854.5,-1839.27 851,-1829.27 847.5,-1839.27 854.5,-1839.27"/>
<text text-anchor="middle" x="887.5" y="-1852.8" font-family="Times,serif" font-size="14.00">13118477</text>
</g>
<!-- N28 -->
<g id="node29" class="node">
<title>N28</title>
<polygon fill="none" stroke="black" points="902.5,-1600.5 799.5,-1600.5 799.5,-1547.5 902.5,-1547.5 902.5,-1600.5"/>
<text text-anchor="middle" x="851" y="-1590.1" font-family="Times,serif" font-size="8.00">std</text>
<text text-anchor="middle" x="851" y="-1581.1" font-family="Times,serif" font-size="8.00">deque</text>
<text text-anchor="middle" x="851" y="-1572.1" font-family="Times,serif" font-size="8.00">_M_push_back_aux</text>
<text text-anchor="end" x="894.5" y="-1563.1" font-family="Times,serif" font-size="8.00">0 (0.0%)</text>
<text text-anchor="end" x="894.5" y="-1554.1" font-family="Times,serif" font-size="8.00">of 13118477 (27.1%)</text>
</g>
<!-- N31 -->
<g id="node32" class="node">
<title>N31</title>
<polygon fill="none" stroke="black" points="868.5,-1421 765.5,-1421 765.5,-1368 868.5,-1368 868.5,-1421"/>
<text text-anchor="middle" x="817" y="-1410.6" font-family="Times,serif" font-size="8.00">std</text>
<text text-anchor="middle" x="817" y="-1401.6" font-family="Times,serif" font-size="8.00">_Deque_base</text>
<text text-anchor="middle" x="817" y="-1392.6" font-family="Times,serif" font-size="8.00">_M_allocate_node</text>
<text text-anchor="end" x="860.5" y="-1383.6" font-family="Times,serif" font-size="8.00">0 (0.0%)</text>
<text text-anchor="end" x="860.5" y="-1374.6" font-family="Times,serif" font-size="8.00">of 12589057 (26.0%)</text>
</g>
<!-- N28&#45;&gt;N31 -->
<g id="edge32" class="edge">
<title>N28&#45;&gt;N31</title>
<path fill="none" stroke="black" stroke-width="1.56" d="M826.24,-1547.18C821.23,-1540.45 816.68,-1532.87 814,-1525 803.77,-1494.96 805.73,-1458.69 809.55,-1432.18"/>
<polygon fill="black" stroke="black" stroke-width="1.56" points="812.82,-1433.87 810.96,-1423.44 805.91,-1432.76 812.82,-1433.87"/>
<text text-anchor="middle" x="850.5" y="-1513.8" font-family="Times,serif" font-size="14.00">12589057</text>
</g>
<!-- N34 -->
<g id="node35" class="node">
<title>N34</title>
<polygon fill="none" stroke="black" points="972.5,-1492 853.5,-1492 853.5,-1439 972.5,-1439 972.5,-1492"/>
<text text-anchor="middle" x="913" y="-1481.6" font-family="Times,serif" font-size="8.00">std</text>
<text text-anchor="middle" x="913" y="-1472.6" font-family="Times,serif" font-size="8.00">deque</text>
<text text-anchor="middle" x="913" y="-1463.6" font-family="Times,serif" font-size="8.00">_M_reserve_map_at_back</text>
<text text-anchor="end" x="964.5" y="-1454.6" font-family="Times,serif" font-size="8.00">0 (0.0%)</text>
<text text-anchor="end" x="964.5" y="-1445.6" font-family="Times,serif" font-size="8.00">of 529420 (1.1%)</text>
</g>
<!-- N28&#45;&gt;N34 -->
<g id="edge34" class="edge">
<title>N28&#45;&gt;N34</title>
<path fill="none" stroke="black" d="M875.32,-1547.02C880.95,-1540.19 886.58,-1532.59 891,-1525 894.96,-1518.2 898.44,-1510.55 901.4,-1503.08"/>
<polygon fill="black" stroke="black" points="904.64,-1504.41 904.83,-1493.81 898.08,-1501.98 904.64,-1504.41"/>
<text text-anchor="middle" x="925.5" y="-1513.8" font-family="Times,serif" font-size="14.00">529420</text>
</g>
<!-- N29 -->
<g id="node30" class="node">
<title>N29</title>
<polygon fill="none" stroke="black" points="902.5,-1713.5 799.5,-1713.5 799.5,-1660.5 902.5,-1660.5 902.5,-1713.5"/>
<text text-anchor="middle" x="851" y="-1703.1" font-family="Times,serif" font-size="8.00">std</text>
<text text-anchor="middle" x="851" y="-1694.1" font-family="Times,serif" font-size="8.00">deque</text>
<text text-anchor="middle" x="851" y="-1685.1" font-family="Times,serif" font-size="8.00">emplace_back</text>
<text text-anchor="end" x="894.5" y="-1676.1" font-family="Times,serif" font-size="8.00">0 (0.0%)</text>
<text text-anchor="end" x="894.5" y="-1667.1" font-family="Times,serif" font-size="8.00">of 13118477 (27.1%)</text>
</g>
<!-- N29&#45;&gt;N28 -->
<g id="edge27" class="edge">
<title>N29&#45;&gt;N28</title>
<path fill="none" stroke="black" stroke-width="1.63" d="M851,-1660.26C851,-1646.07 851,-1628.2 851,-1612.49"/>
<polygon fill="black" stroke="black" stroke-width="1.63" points="854.5,-1613.45 851,-1603.45 847.5,-1613.45 854.5,-1613.45"/>
<text text-anchor="middle" x="887.5" y="-1626.8" font-family="Times,serif" font-size="14.00">13118477</text>
</g>
<!-- N30&#45;&gt;N29 -->
<g id="edge29" class="edge">
<title>N30&#45;&gt;N29</title>
<path fill="none" stroke="black" stroke-width="1.63" d="M851,-1773.26C851,-1759.07 851,-1741.2 851,-1725.49"/>
<polygon fill="black" stroke="black" stroke-width="1.63" points="854.5,-1726.45 851,-1716.45 847.5,-1726.45 854.5,-1726.45"/>
<text text-anchor="middle" x="887.5" y="-1739.8" font-family="Times,serif" font-size="14.00">13118477</text>
</g>
<!-- N31&#45;&gt;N15 -->
<g id="edge31" class="edge">
<title>N31&#45;&gt;N15</title>
<path fill="none" stroke="black" stroke-width="1.56" d="M820.01,-1367.78C824.32,-1321.08 828.23,-1220.31 793,-1146 785.32,-1129.8 772.71,-1115.07 759.9,-1102.96"/>
<polygon fill="black" stroke="black" stroke-width="1.56" points="763.02,-1101.07 753.25,-1096.97 758.34,-1106.27 763.02,-1101.07"/>
<text text-anchor="middle" x="858.5" y="-1244.3" font-family="Times,serif" font-size="14.00">12589057</text>
</g>
<!-- N32 -->
<g id="node33" class="node">
<title>N32</title>
<polygon fill="none" stroke="black" points="944.5,-1199 857.5,-1199 857.5,-1146 944.5,-1146 944.5,-1199"/>
<text text-anchor="middle" x="901" y="-1188.6" font-family="Times,serif" font-size="8.00">std</text>
<text text-anchor="middle" x="901" y="-1179.6" font-family="Times,serif" font-size="8.00">_Deque_base</text>
<text text-anchor="middle" x="901" y="-1170.6" font-family="Times,serif" font-size="8.00">_M_allocate_map</text>
<text text-anchor="end" x="936.5" y="-1161.6" font-family="Times,serif" font-size="8.00">0 (0.0%)</text>
<text text-anchor="end" x="936.5" y="-1152.6" font-family="Times,serif" font-size="8.00">of 529420 (1.1%)</text>
</g>
<!-- N32&#45;&gt;N15 -->
<g id="edge33" class="edge">
<title>N32&#45;&gt;N15</title>
<path fill="none" stroke="black" d="M874.34,-1145.58C861.9,-1134.49 846.45,-1122.03 831,-1113 815.43,-1103.9 797.62,-1096.07 780.73,-1089.66"/>
<polygon fill="black" stroke="black" points="782.39,-1086.54 771.79,-1086.38 779.97,-1093.11 782.39,-1086.54"/>
<text text-anchor="middle" x="879.5" y="-1116.8" font-family="Times,serif" font-size="14.00">529420</text>
</g>
<!-- N33 -->
<g id="node34" class="node">
<title>N33</title>
<polygon fill="none" stroke="black" points="960,-1350 866,-1350 866,-1297 960,-1297 960,-1350"/>
<text text-anchor="middle" x="913" y="-1339.6" font-family="Times,serif" font-size="8.00">std</text>
<text text-anchor="middle" x="913" y="-1330.6" font-family="Times,serif" font-size="8.00">deque</text>
<text text-anchor="middle" x="913" y="-1321.6" font-family="Times,serif" font-size="8.00">_M_reallocate_map</text>
<text text-anchor="end" x="952" y="-1312.6" font-family="Times,serif" font-size="8.00">0 (0.0%)</text>
<text text-anchor="end" x="952" y="-1303.6" font-family="Times,serif" font-size="8.00">of 529420 (1.1%)</text>
</g>
<!-- N33&#45;&gt;N32 -->
<g id="edge35" class="edge">
<title>N33&#45;&gt;N32</title>
<path fill="none" stroke="black" d="M910.91,-1296.55C909,-1272.8 906.15,-1237.39 903.99,-1210.64"/>
<polygon fill="black" stroke="black" points="907.5,-1210.6 903.21,-1200.91 900.52,-1211.16 907.5,-1210.6"/>
<text text-anchor="middle" x="936.5" y="-1244.3" font-family="Times,serif" font-size="14.00">529420</text>
</g>
<!-- N34&#45;&gt;N33 -->
<g id="edge36" class="edge">
<title>N34&#45;&gt;N33</title>
<path fill="none" stroke="black" d="M913,-1438.82C913,-1417.25 913,-1386.14 913,-1361.81"/>
<polygon fill="black" stroke="black" points="916.5,-1362 913,-1352 909.5,-1362 916.5,-1362"/>
<text text-anchor="middle" x="940.5" y="-1390.8" font-family="Times,serif" font-size="14.00">529420</text>
</g>
</g>
</g></svg>
