<?xml version="1.0" encoding="UTF-8" standalone="no"?>
<!DOCTYPE svg PUBLIC "-//W3C//DTD SVG 1.1//EN"
 "http://www.w3.org/Graphics/SVG/1.1/DTD/svg11.dtd">
<!-- Generated by graphviz version 7.0.0 (0)
 -->
<!-- Title: ../../../bazel&#45;bin/profiler/jemalloc/heap&#45;profiling/main; 107666767 B Pages: 1 -->
<svg width="100%" height="100%"
  xmlns="http://www.w3.org/2000/svg" xmlns:xlink="http://www.w3.org/1999/xlink">
<script type="text/ecmascript"><![CDATA[
// SVGPan
// http://www.cyberz.org/blog/2009/12/08/svgpan-a-javascript-svg-panzoomdrag-library/
// Local modification: if(true || ...) below to force panning, never moving.

/**
 *  SVGPan library 1.2
 * ====================
 *
 * Given an unique existing element with id "viewport", including the
 * the library into any SVG adds the following capabilities:
 *
 *  - Mouse panning
 *  - Mouse zooming (using the wheel)
 *  - Object dargging
 *
 * Known issues:
 *
 *  - Zooming (while panning) on Safari has still some issues
 *
 * Releases:
 *
 * 1.2, Sat Mar 20 08:42:50 GMT 2010, Zeng Xiaohui
 *	Fixed a bug with browser mouse handler interaction
 *
 * 1.1, Wed Feb  3 17:39:33 GMT 2010, Zeng Xiaohui
 *	Updated the zoom code to support the mouse wheel on Safari/Chrome
 *
 * 1.0, Andrea Leofreddi
 *	First release
 *
 * This code is licensed under the following BSD license:
 *
 * Copyright 2009-2010 Andrea Leofreddi <a.leofreddi@itcharm.com>. All rights reserved.
 *
 * Redistribution and use in source and binary forms, with or without modification, are
 * permitted provided that the following conditions are met:
 *
 *    1. Redistributions of source code must retain the above copyright notice, this list of
 *       conditions and the following disclaimer.
 *
 *    2. Redistributions in binary form must reproduce the above copyright notice, this list
 *       of conditions and the following disclaimer in the documentation and/or other materials
 *       provided with the distribution.
 *
 * THIS SOFTWARE IS PROVIDED BY Andrea Leofreddi ``AS IS'' AND ANY EXPRESS OR IMPLIED
 * WARRANTIES, INCLUDING, BUT NOT LIMITED TO, THE IMPLIED WARRANTIES OF MERCHANTABILITY AND
 * FITNESS FOR A PARTICULAR PURPOSE ARE DISCLAIMED. IN NO EVENT SHALL Andrea Leofreddi OR
 * CONTRIBUTORS BE LIABLE FOR ANY DIRECT, INDIRECT, INCIDENTAL, SPECIAL, EXEMPLARY, OR
 * CONSEQUENTIAL DAMAGES (INCLUDING, BUT NOT LIMITED TO, PROCUREMENT OF SUBSTITUTE GOODS OR
 * SERVICES; LOSS OF USE, DATA, OR PROFITS; OR BUSINESS INTERRUPTION) HOWEVER CAUSED AND ON
 * ANY THEORY OF LIABILITY, WHETHER IN CONTRACT, STRICT LIABILITY, OR TORT (INCLUDING
 * NEGLIGENCE OR OTHERWISE) ARISING IN ANY WAY OUT OF THE USE OF THIS SOFTWARE, EVEN IF
 * ADVISED OF THE POSSIBILITY OF SUCH DAMAGE.
 *
 * The views and conclusions contained in the software and documentation are those of the
 * authors and should not be interpreted as representing official policies, either expressed
 * or implied, of Andrea Leofreddi.
 */

var root = document.documentElement;

var state = 'none', stateTarget, stateOrigin, stateTf;

setupHandlers(root);

/**
 * Register handlers
 */
function setupHandlers(root){
	setAttributes(root, {
		"onmouseup" : "add(evt)",
		"onmousedown" : "handleMouseDown(evt)",
		"onmousemove" : "handleMouseMove(evt)",
		"onmouseup" : "handleMouseUp(evt)",
		//"onmouseout" : "handleMouseUp(evt)", // Decomment this to stop the pan functionality when dragging out of the SVG element
	});

	if(navigator.userAgent.toLowerCase().indexOf('webkit') >= 0)
		window.addEventListener('mousewheel', handleMouseWheel, false); // Chrome/Safari
	else
		window.addEventListener('DOMMouseScroll', handleMouseWheel, false); // Others

	var g = svgDoc.getElementById("svg");
	g.width = "100%";
	g.height = "100%";
}

/**
 * Instance an SVGPoint object with given event coordinates.
 */
function getEventPoint(evt) {
	var p = root.createSVGPoint();

	p.x = evt.clientX;
	p.y = evt.clientY;

	return p;
}

/**
 * Sets the current transform matrix of an element.
 */
function setCTM(element, matrix) {
	var s = "matrix(" + matrix.a + "," + matrix.b + "," + matrix.c + "," + matrix.d + "," + matrix.e + "," + matrix.f + ")";

	element.setAttribute("transform", s);
}

/**
 * Dumps a matrix to a string (useful for debug).
 */
function dumpMatrix(matrix) {
	var s = "[ " + matrix.a + ", " + matrix.c + ", " + matrix.e + "\n  " + matrix.b + ", " + matrix.d + ", " + matrix.f + "\n  0, 0, 1 ]";

	return s;
}

/**
 * Sets attributes of an element.
 */
function setAttributes(element, attributes){
	for (i in attributes)
		element.setAttributeNS(null, i, attributes[i]);
}

/**
 * Handle mouse move event.
 */
function handleMouseWheel(evt) {
	if(evt.preventDefault)
		evt.preventDefault();

	evt.returnValue = false;

	var svgDoc = evt.target.ownerDocument;

	var delta;

	if(evt.wheelDelta)
		delta = evt.wheelDelta / 3600; // Chrome/Safari
	else
		delta = evt.detail / -90; // Mozilla

	var z = 1 + delta; // Zoom factor: 0.9/1.1

	var g = svgDoc.getElementById("viewport");

	var p = getEventPoint(evt);

	p = p.matrixTransform(g.getCTM().inverse());

	// Compute new scale matrix in current mouse position
	var k = root.createSVGMatrix().translate(p.x, p.y).scale(z).translate(-p.x, -p.y);

        setCTM(g, g.getCTM().multiply(k));

	stateTf = stateTf.multiply(k.inverse());
}

/**
 * Handle mouse move event.
 */
function handleMouseMove(evt) {
	if(evt.preventDefault)
		evt.preventDefault();

	evt.returnValue = false;

	var svgDoc = evt.target.ownerDocument;

	var g = svgDoc.getElementById("viewport");

	if(state == 'pan') {
		// Pan mode
		var p = getEventPoint(evt).matrixTransform(stateTf);

		setCTM(g, stateTf.inverse().translate(p.x - stateOrigin.x, p.y - stateOrigin.y));
	} else if(state == 'move') {
		// Move mode
		var p = getEventPoint(evt).matrixTransform(g.getCTM().inverse());

		setCTM(stateTarget, root.createSVGMatrix().translate(p.x - stateOrigin.x, p.y - stateOrigin.y).multiply(g.getCTM().inverse()).multiply(stateTarget.getCTM()));

		stateOrigin = p;
	}
}

/**
 * Handle click event.
 */
function handleMouseDown(evt) {
	if(evt.preventDefault)
		evt.preventDefault();

	evt.returnValue = false;

	var svgDoc = evt.target.ownerDocument;

	var g = svgDoc.getElementById("viewport");

	if(true || evt.target.tagName == "svg") {
		// Pan mode
		state = 'pan';

		stateTf = g.getCTM().inverse();

		stateOrigin = getEventPoint(evt).matrixTransform(stateTf);
	} else {
		// Move mode
		state = 'move';

		stateTarget = evt.target;

		stateTf = g.getCTM().inverse();

		stateOrigin = getEventPoint(evt).matrixTransform(stateTf);
	}
}

/**
 * Handle mouse button release event.
 */
function handleMouseUp(evt) {
	if(evt.preventDefault)
		evt.preventDefault();

	evt.returnValue = false;

	var svgDoc = evt.target.ownerDocument;

	if(state == 'pan' || state == 'move') {
		// Quit pan mode
		state = '';
	}
}

]]></script>
<g id="viewport" transform="translate(0,0)">
<g id="viewport" class="graph" transform="scale(1 1) rotate(0) translate(4 2179)">
<title>../../../bazel&#45;bin/profiler/jemalloc/heap&#45;profiling/main; 107666767 B</title>
<polygon fill="white" stroke="none" points="-4,4 -4,-2179 1132,-2179 1132,4 -4,4"/>
<!-- Legend -->
<g id="node1" class="node">
<title>Legend</title>
<text text-anchor="start" x="8" y="-2151.8" font-family="Times,serif" font-size="24.00">../../../bazel&#45;bin/profiler/jemalloc/heap&#45;profiling/main</text>
<text text-anchor="start" x="8" y="-2125.8" font-family="Times,serif" font-size="24.00">Total B: 107666767</text>
<text text-anchor="start" x="8" y="-2099.8" font-family="Times,serif" font-size="24.00">Focusing on: 107666767</text>
<text text-anchor="start" x="8" y="-2073.8" font-family="Times,serif" font-size="24.00">Dropped nodes with &lt;= 538333 abs(B)</text>
<text text-anchor="start" x="8" y="-2047.8" font-family="Times,serif" font-size="24.00">Dropped edges with &lt;= 107666 B</text>
</g>
<!-- N1 -->
<g id="node2" class="node">
<title>N1</title>
<polygon fill="none" stroke="black" points="840.5,-593 727.5,-593 727.5,-549 840.5,-549 840.5,-593"/>
<text text-anchor="middle" x="784" y="-582.6" font-family="Times,serif" font-size="8.00">imalloc</text>
<text text-anchor="middle" x="784" y="-573.6" font-family="Times,serif" font-size="8.00">(inline)</text>
<text text-anchor="end" x="832.5" y="-564.6" font-family="Times,serif" font-size="8.00">0 (0.0%)</text>
<text text-anchor="end" x="832.5" y="-555.6" font-family="Times,serif" font-size="8.00">of 107666767 (100.0%)</text>
</g>
<!-- N2 -->
<g id="node3" class="node">
<title>N2</title>
<polygon fill="none" stroke="black" points="840.5,-498 727.5,-498 727.5,-454 840.5,-454 840.5,-498"/>
<text text-anchor="middle" x="784" y="-487.6" font-family="Times,serif" font-size="8.00">imalloc_body</text>
<text text-anchor="middle" x="784" y="-478.6" font-family="Times,serif" font-size="8.00">(inline)</text>
<text text-anchor="end" x="832.5" y="-469.6" font-family="Times,serif" font-size="8.00">0 (0.0%)</text>
<text text-anchor="end" x="832.5" y="-460.6" font-family="Times,serif" font-size="8.00">of 107666767 (100.0%)</text>
</g>
<!-- N1&#45;&gt;N2 -->
<g id="edge5" class="edge">
<title>N1&#45;&gt;N2</title>
<path fill="none" stroke="black" stroke-width="2" stroke-dasharray="5,2" d="M784,-548.9C784,-537.33 784,-522.73 784,-509.72"/>
<polygon fill="black" stroke="black" stroke-width="2" points="787.5,-511.37 784,-501.37 780.5,-511.37 787.5,-511.37"/>
<text text-anchor="middle" x="825" y="-519.8" font-family="Times,serif" font-size="14.00">107666767</text>
</g>
<!-- N6 -->
<g id="node7" class="node">
<title>N6</title>
<polygon fill="none" stroke="black" points="840.5,-403 727.5,-403 727.5,-359 840.5,-359 840.5,-403"/>
<text text-anchor="middle" x="784" y="-392.6" font-family="Times,serif" font-size="8.00">prof_alloc_prep</text>
<text text-anchor="middle" x="784" y="-383.6" font-family="Times,serif" font-size="8.00">(inline)</text>
<text text-anchor="end" x="832.5" y="-374.6" font-family="Times,serif" font-size="8.00">0 (0.0%)</text>
<text text-anchor="end" x="832.5" y="-365.6" font-family="Times,serif" font-size="8.00">of 107666767 (100.0%)</text>
</g>
<!-- N2&#45;&gt;N6 -->
<g id="edge2" class="edge">
<title>N2&#45;&gt;N6</title>
<path fill="none" stroke="black" stroke-width="2" stroke-dasharray="5,2" d="M784,-453.9C784,-442.33 784,-427.73 784,-414.72"/>
<polygon fill="black" stroke="black" stroke-width="2" points="787.5,-416.37 784,-406.37 780.5,-416.37 787.5,-416.37"/>
<text text-anchor="middle" x="825" y="-424.8" font-family="Times,serif" font-size="14.00">107666767</text>
</g>
<!-- N3 -->
<g id="node4" class="node">
<title>N3</title>
<polygon fill="none" stroke="black" points="840.5,-679 727.5,-679 727.5,-644 840.5,-644 840.5,-679"/>
<text text-anchor="middle" x="784" y="-668.6" font-family="Times,serif" font-size="8.00">je_malloc_default</text>
<text text-anchor="end" x="832.5" y="-659.6" font-family="Times,serif" font-size="8.00">0 (0.0%)</text>
<text text-anchor="end" x="832.5" y="-650.6" font-family="Times,serif" font-size="8.00">of 107666767 (100.0%)</text>
</g>
<!-- N3&#45;&gt;N1 -->
<g id="edge1" class="edge">
<title>N3&#45;&gt;N1</title>
<path fill="none" stroke="black" stroke-width="2" stroke-dasharray="5,2" d="M784,-643.85C784,-632.78 784,-617.86 784,-604.49"/>
<polygon fill="black" stroke="black" stroke-width="2" points="787.5,-606.3 784,-596.3 780.5,-606.3 787.5,-606.3"/>
<text text-anchor="middle" x="825" y="-614.8" font-family="Times,serif" font-size="14.00">107666767</text>
</g>
<!-- N4 -->
<g id="node5" class="node">
<title>N4</title>
<polygon fill="none" stroke="black" points="840.5,-222 727.5,-222 727.5,-187 840.5,-187 840.5,-222"/>
<text text-anchor="middle" x="784" y="-211.6" font-family="Times,serif" font-size="8.00">je_prof_backtrace</text>
<text text-anchor="end" x="832.5" y="-202.6" font-family="Times,serif" font-size="8.00">0 (0.0%)</text>
<text text-anchor="end" x="832.5" y="-193.6" font-family="Times,serif" font-size="8.00">of 107666767 (100.0%)</text>
</g>
<!-- N7 -->
<g id="node8" class="node">
<title>N7</title>
<polygon fill="none" stroke="black" points="1100,-136 468,-136 468,0 1100,0 1100,-136"/>
<text text-anchor="middle" x="784" y="-85.6" font-family="Times,serif" font-size="58.00">prof_backtrace_impl</text>
<text text-anchor="end" x="1092" y="-21.6" font-family="Times,serif" font-size="58.00">107666767 (100.0%)</text>
</g>
<!-- N4&#45;&gt;N7 -->
<g id="edge4" class="edge">
<title>N4&#45;&gt;N7</title>
<path fill="none" stroke="black" stroke-width="2" d="M784,-186.74C784,-176.47 784,-162.5 784,-147.77"/>
<polygon fill="black" stroke="black" stroke-width="2" points="787.5,-149.43 784,-139.43 780.5,-149.43 787.5,-149.43"/>
<text text-anchor="middle" x="825" y="-157.8" font-family="Times,serif" font-size="14.00">107666767</text>
</g>
<!-- N5 -->
<g id="node6" class="node">
<title>N5</title>
<polygon fill="none" stroke="black" points="840.5,-308 727.5,-308 727.5,-273 840.5,-273 840.5,-308"/>
<text text-anchor="middle" x="784" y="-297.6" font-family="Times,serif" font-size="8.00">je_prof_tctx_create</text>
<text text-anchor="end" x="832.5" y="-288.6" font-family="Times,serif" font-size="8.00">0 (0.0%)</text>
<text text-anchor="end" x="832.5" y="-279.6" font-family="Times,serif" font-size="8.00">of 107666767 (100.0%)</text>
</g>
<!-- N5&#45;&gt;N4 -->
<g id="edge6" class="edge">
<title>N5&#45;&gt;N4</title>
<path fill="none" stroke="black" stroke-width="2" d="M784,-272.5C784,-261.34 784,-246.48 784,-233.59"/>
<polygon fill="black" stroke="black" stroke-width="2" points="787.5,-235.5 784,-225.5 780.5,-235.5 787.5,-235.5"/>
<text text-anchor="middle" x="825" y="-243.8" font-family="Times,serif" font-size="14.00">107666767</text>
</g>
<!-- N6&#45;&gt;N5 -->
<g id="edge3" class="edge">
<title>N6&#45;&gt;N5</title>
<path fill="none" stroke="black" stroke-width="2" d="M784,-358.58C784,-346.87 784,-332.23 784,-319.61"/>
<polygon fill="black" stroke="black" stroke-width="2" points="787.5,-321.33 784,-311.33 780.5,-321.33 787.5,-321.33"/>
<text text-anchor="middle" x="825" y="-329.8" font-family="Times,serif" font-size="14.00">107666767</text>
</g>
<!-- N8 -->
<g id="node9" class="node">
<title>N8</title>
<polygon fill="none" stroke="black" points="785,-1900 647,-1900 647,-1865 785,-1865 785,-1900"/>
<text text-anchor="middle" x="716" y="-1889.6" font-family="Times,serif" font-size="8.00">__libc_init_first@@GLIBC_2.2.5</text>
<text text-anchor="end" x="777" y="-1880.6" font-family="Times,serif" font-size="8.00">0 (0.0%)</text>
<text text-anchor="end" x="777" y="-1871.6" font-family="Times,serif" font-size="8.00">of 107100233 (99.5%)</text>
</g>
<!-- N11 -->
<g id="node12" class="node">
<title>N11</title>
<polygon fill="none" stroke="black" points="770,-1814 662,-1814 662,-1779 770,-1779 770,-1814"/>
<text text-anchor="middle" x="716" y="-1803.6" font-family="Times,serif" font-size="8.00">main</text>
<text text-anchor="end" x="762" y="-1794.6" font-family="Times,serif" font-size="8.00">0 (0.0%)</text>
<text text-anchor="end" x="762" y="-1785.6" font-family="Times,serif" font-size="8.00">of 107100233 (99.5%)</text>
</g>
<!-- N8&#45;&gt;N11 -->
<g id="edge8" class="edge">
<title>N8&#45;&gt;N11</title>
<path fill="none" stroke="black" stroke-width="2" d="M716,-1864.5C716,-1853.34 716,-1838.48 716,-1825.59"/>
<polygon fill="black" stroke="black" stroke-width="2" points="719.5,-1827.5 716,-1817.5 712.5,-1827.5 719.5,-1827.5"/>
<text text-anchor="middle" x="757" y="-1835.8" font-family="Times,serif" font-size="14.00">107100233</text>
</g>
<!-- N9 -->
<g id="node10" class="node">
<title>N9</title>
<polygon fill="none" stroke="black" points="786,-1986 646,-1986 646,-1951 786,-1951 786,-1986"/>
<text text-anchor="middle" x="716" y="-1975.6" font-family="Times,serif" font-size="8.00">__libc_start_main@GLIBC_2.2.5</text>
<text text-anchor="end" x="778" y="-1966.6" font-family="Times,serif" font-size="8.00">0 (0.0%)</text>
<text text-anchor="end" x="778" y="-1957.6" font-family="Times,serif" font-size="8.00">of 107100233 (99.5%)</text>
</g>
<!-- N9&#45;&gt;N8 -->
<g id="edge7" class="edge">
<title>N9&#45;&gt;N8</title>
<path fill="none" stroke="black" stroke-width="2" d="M716,-1950.5C716,-1939.34 716,-1924.48 716,-1911.59"/>
<polygon fill="black" stroke="black" stroke-width="2" points="719.5,-1913.5 716,-1903.5 712.5,-1913.5 719.5,-1913.5"/>
<text text-anchor="middle" x="757" y="-1921.8" font-family="Times,serif" font-size="14.00">107100233</text>
</g>
<!-- N10 -->
<g id="node11" class="node">
<title>N10</title>
<polygon fill="none" stroke="black" points="770,-2123.5 662,-2123.5 662,-2088.5 770,-2088.5 770,-2123.5"/>
<text text-anchor="middle" x="716" y="-2113.1" font-family="Times,serif" font-size="8.00">_start</text>
<text text-anchor="end" x="762" y="-2104.1" font-family="Times,serif" font-size="8.00">0 (0.0%)</text>
<text text-anchor="end" x="762" y="-2095.1" font-family="Times,serif" font-size="8.00">of 107100233 (99.5%)</text>
</g>
<!-- N10&#45;&gt;N9 -->
<g id="edge9" class="edge">
<title>N10&#45;&gt;N9</title>
<path fill="none" stroke="black" stroke-width="2" d="M716,-2088.11C716,-2065.47 716,-2024.98 716,-1997.68"/>
<polygon fill="black" stroke="black" stroke-width="2" points="719.5,-1999.2 716,-1989.2 712.5,-1999.2 719.5,-1999.2"/>
<text text-anchor="middle" x="757" y="-2007.8" font-family="Times,serif" font-size="14.00">107100233</text>
</g>
<!-- N11&#45;&gt;N3 -->
<g id="edge10" class="edge">
<title>N11&#45;&gt;N3</title>
<path fill="none" stroke="black" stroke-width="2" d="M710.85,-1778.63C706.17,-1761.79 700,-1735.1 700,-1711.5 700,-1711.5 700,-1711.5 700,-751 700,-723.51 721.59,-701.14 742.88,-685.77"/>
<polygon fill="black" stroke="black" stroke-width="2" points="743.43,-689.63 749.74,-681.12 739.5,-683.84 743.43,-689.63"/>
<text text-anchor="middle" x="736.5" y="-1229.8" font-family="Times,serif" font-size="14.00">58700840</text>
</g>
<!-- N12 -->
<g id="node13" class="node">
<title>N12</title>
<polygon fill="none" stroke="black" points="837.5,-1728 734.5,-1728 734.5,-1693 837.5,-1693 837.5,-1728"/>
<text text-anchor="middle" x="786" y="-1717.6" font-family="Times,serif" font-size="8.00">insertToTrash</text>
<text text-anchor="end" x="829.5" y="-1708.6" font-family="Times,serif" font-size="8.00">0 (0.0%)</text>
<text text-anchor="end" x="829.5" y="-1699.6" font-family="Times,serif" font-size="8.00">of 48399392 (45.0%)</text>
</g>
<!-- N11&#45;&gt;N12 -->
<g id="edge11" class="edge">
<title>N11&#45;&gt;N12</title>
<path fill="none" stroke="black" stroke-width="2" d="M730.17,-1778.5C740.03,-1766.66 753.37,-1750.65 764.54,-1737.25"/>
<polygon fill="black" stroke="black" stroke-width="2" points="766.2,-1740.72 769.92,-1730.8 760.83,-1736.24 766.2,-1740.72"/>
<text text-anchor="middle" x="792.5" y="-1749.8" font-family="Times,serif" font-size="14.00">48399392</text>
</g>
<!-- N17 -->
<g id="node18" class="node">
<title>N17</title>
<polygon fill="none" stroke="black" points="844,-1642 728,-1642 728,-1598 844,-1598 844,-1642"/>
<text text-anchor="middle" x="786" y="-1631.6" font-family="Times,serif" font-size="8.00">auto</text>
<text text-anchor="middle" x="786" y="-1622.6" font-family="Times,serif" font-size="8.00">createContainer@2756c</text>
<text text-anchor="end" x="836" y="-1613.6" font-family="Times,serif" font-size="8.00">0 (0.0%)</text>
<text text-anchor="end" x="836" y="-1604.6" font-family="Times,serif" font-size="8.00">of 20600179 (19.1%)</text>
</g>
<!-- N12&#45;&gt;N17 -->
<g id="edge18" class="edge">
<title>N12&#45;&gt;N17</title>
<path fill="none" stroke="black" stroke-width="1.15" d="M786,-1692.85C786,-1681.78 786,-1666.86 786,-1653.49"/>
<polygon fill="black" stroke="black" stroke-width="1.15" points="789.5,-1654.01 786,-1644.01 782.5,-1654.01 789.5,-1654.01"/>
<text text-anchor="middle" x="822.5" y="-1663.8" font-family="Times,serif" font-size="14.00">20600179</text>
</g>
<!-- N22 -->
<g id="node23" class="node">
<title>N22</title>
<polygon fill="none" stroke="black" points="978,-1642 862,-1642 862,-1598 978,-1598 978,-1642"/>
<text text-anchor="middle" x="920" y="-1631.6" font-family="Times,serif" font-size="8.00">auto</text>
<text text-anchor="middle" x="920" y="-1622.6" font-family="Times,serif" font-size="8.00">createContainer@2787c</text>
<text text-anchor="end" x="970" y="-1613.6" font-family="Times,serif" font-size="8.00">0 (0.0%)</text>
<text text-anchor="end" x="970" y="-1604.6" font-family="Times,serif" font-size="8.00">of 14680736 (13.6%)</text>
</g>
<!-- N12&#45;&gt;N22 -->
<g id="edge23" class="edge">
<title>N12&#45;&gt;N22</title>
<path fill="none" stroke="black" d="M830.53,-1692.61C841.53,-1687.62 853.02,-1681.68 863,-1675 873.47,-1667.99 883.82,-1659 892.76,-1650.38"/>
<polygon fill="black" stroke="black" points="895.18,-1652.9 899.79,-1643.36 890.23,-1647.95 895.18,-1652.9"/>
<text text-anchor="middle" x="918.5" y="-1663.8" font-family="Times,serif" font-size="14.00">14680736</text>
</g>
<!-- N27 -->
<g id="node28" class="node">
<title>N27</title>
<polygon fill="none" stroke="black" points="1113.5,-1642 996.5,-1642 996.5,-1598 1113.5,-1598 1113.5,-1642"/>
<text text-anchor="middle" x="1055" y="-1631.6" font-family="Times,serif" font-size="8.00">auto</text>
<text text-anchor="middle" x="1055" y="-1622.6" font-family="Times,serif" font-size="8.00">createContainer@27684</text>
<text text-anchor="end" x="1105.5" y="-1613.6" font-family="Times,serif" font-size="8.00">0 (0.0%)</text>
<text text-anchor="end" x="1105.5" y="-1604.6" font-family="Times,serif" font-size="8.00">of 13118477 (12.2%)</text>
</g>
<!-- N12&#45;&gt;N27 -->
<g id="edge30" class="edge">
<title>N12&#45;&gt;N27</title>
<path fill="none" stroke="black" d="M837.89,-1703.51C872.87,-1698.43 919.65,-1689.57 959,-1675 977.56,-1668.13 996.81,-1657.98 1013.15,-1648.34"/>
<polygon fill="black" stroke="black" points="1014.88,-1651.38 1021.63,-1643.21 1011.26,-1645.39 1014.88,-1651.38"/>
<text text-anchor="middle" x="1028.5" y="-1663.8" font-family="Times,serif" font-size="14.00">13118477</text>
</g>
<!-- N13 -->
<g id="node14" class="node">
<title>N13</title>
<polygon fill="none" stroke="black" points="835.5,-878 732.5,-878 732.5,-825 835.5,-825 835.5,-878"/>
<text text-anchor="middle" x="784" y="-867.6" font-family="Times,serif" font-size="8.00">std</text>
<text text-anchor="middle" x="784" y="-858.6" font-family="Times,serif" font-size="8.00">__new_allocator</text>
<text text-anchor="middle" x="784" y="-849.6" font-family="Times,serif" font-size="8.00">allocate</text>
<text text-anchor="end" x="827.5" y="-840.6" font-family="Times,serif" font-size="8.00">0 (0.0%)</text>
<text text-anchor="end" x="827.5" y="-831.6" font-family="Times,serif" font-size="8.00">of 48399392 (45.0%)</text>
</g>
<!-- N16 -->
<g id="node17" class="node">
<title>N16</title>
<polygon fill="none" stroke="black" points="835.5,-774 732.5,-774 732.5,-730 835.5,-730 835.5,-774"/>
<text text-anchor="middle" x="784" y="-763.6" font-family="Times,serif" font-size="8.00">void*</text>
<text text-anchor="middle" x="784" y="-754.6" font-family="Times,serif" font-size="8.00">fallback_impl</text>
<text text-anchor="end" x="827.5" y="-745.6" font-family="Times,serif" font-size="8.00">0 (0.0%)</text>
<text text-anchor="end" x="827.5" y="-736.6" font-family="Times,serif" font-size="8.00">of 48399392 (45.0%)</text>
</g>
<!-- N13&#45;&gt;N16 -->
<g id="edge12" class="edge">
<title>N13&#45;&gt;N16</title>
<path fill="none" stroke="black" stroke-width="2" d="M784,-824.63C784,-812.74 784,-798.51 784,-785.88"/>
<polygon fill="black" stroke="black" stroke-width="2" points="787.5,-787.41 784,-777.41 780.5,-787.41 787.5,-787.41"/>
<text text-anchor="middle" x="820.5" y="-795.8" font-family="Times,serif" font-size="14.00">48399392</text>
</g>
<!-- N14 -->
<g id="node15" class="node">
<title>N14</title>
<polygon fill="none" stroke="black" points="837.5,-991 734.5,-991 734.5,-929 837.5,-929 837.5,-991"/>
<text text-anchor="middle" x="786" y="-980.6" font-family="Times,serif" font-size="8.00">std</text>
<text text-anchor="middle" x="786" y="-971.6" font-family="Times,serif" font-size="8.00">allocator</text>
<text text-anchor="middle" x="786" y="-962.6" font-family="Times,serif" font-size="8.00">allocate</text>
<text text-anchor="middle" x="786" y="-953.6" font-family="Times,serif" font-size="8.00">(inline)</text>
<text text-anchor="end" x="829.5" y="-944.6" font-family="Times,serif" font-size="8.00">0 (0.0%)</text>
<text text-anchor="end" x="829.5" y="-935.6" font-family="Times,serif" font-size="8.00">of 48399392 (45.0%)</text>
</g>
<!-- N14&#45;&gt;N13 -->
<g id="edge15" class="edge">
<title>N14&#45;&gt;N13</title>
<path fill="none" stroke="black" stroke-width="2" d="M785.43,-928.77C785.2,-916.62 784.94,-902.49 784.7,-889.72"/>
<polygon fill="black" stroke="black" stroke-width="2" points="788.23,-891.43 784.54,-881.5 781.23,-891.56 788.23,-891.43"/>
<text text-anchor="middle" x="822.5" y="-899.8" font-family="Times,serif" font-size="14.00">48399392</text>
</g>
<!-- N15 -->
<g id="node16" class="node">
<title>N15</title>
<polygon fill="none" stroke="black" points="847.5,-1095 744.5,-1095 744.5,-1042 847.5,-1042 847.5,-1095"/>
<text text-anchor="middle" x="796" y="-1084.6" font-family="Times,serif" font-size="8.00">std</text>
<text text-anchor="middle" x="796" y="-1075.6" font-family="Times,serif" font-size="8.00">allocator_traits</text>
<text text-anchor="middle" x="796" y="-1066.6" font-family="Times,serif" font-size="8.00">allocate</text>
<text text-anchor="end" x="839.5" y="-1057.6" font-family="Times,serif" font-size="8.00">0 (0.0%)</text>
<text text-anchor="end" x="839.5" y="-1048.6" font-family="Times,serif" font-size="8.00">of 48399392 (45.0%)</text>
</g>
<!-- N15&#45;&gt;N14 -->
<g id="edge13" class="edge">
<title>N15&#45;&gt;N14</title>
<path fill="none" stroke="black" stroke-width="2" stroke-dasharray="5,2" d="M793.58,-1041.72C792.48,-1030.01 791.15,-1015.85 789.91,-1002.69"/>
<polygon fill="black" stroke="black" stroke-width="2" points="793.56,-1004.1 789.14,-994.47 786.59,-1004.76 793.56,-1004.1"/>
<text text-anchor="middle" x="828.5" y="-1012.8" font-family="Times,serif" font-size="14.00">48399392</text>
</g>
<!-- N16&#45;&gt;N3 -->
<g id="edge14" class="edge">
<title>N16&#45;&gt;N3</title>
<path fill="none" stroke="black" stroke-width="2" d="M784,-729.58C784,-717.87 784,-703.23 784,-690.61"/>
<polygon fill="black" stroke="black" stroke-width="2" points="787.5,-692.33 784,-682.33 780.5,-692.33 787.5,-692.33"/>
<text text-anchor="middle" x="820.5" y="-700.8" font-family="Times,serif" font-size="14.00">48399392</text>
</g>
<!-- N21 -->
<g id="node22" class="node">
<title>N21</title>
<polygon fill="none" stroke="black" points="839.5,-1542.5 736.5,-1542.5 736.5,-1489.5 839.5,-1489.5 839.5,-1542.5"/>
<text text-anchor="middle" x="788" y="-1532.1" font-family="Times,serif" font-size="8.00">std</text>
<text text-anchor="middle" x="788" y="-1523.1" font-family="Times,serif" font-size="8.00">vector</text>
<text text-anchor="middle" x="788" y="-1514.1" font-family="Times,serif" font-size="8.00">push_back</text>
<text text-anchor="end" x="831.5" y="-1505.1" font-family="Times,serif" font-size="8.00">0 (0.0%)</text>
<text text-anchor="end" x="831.5" y="-1496.1" font-family="Times,serif" font-size="8.00">of 20600179 (19.1%)</text>
</g>
<!-- N17&#45;&gt;N21 -->
<g id="edge19" class="edge">
<title>N17&#45;&gt;N21</title>
<path fill="none" stroke="black" stroke-width="1.15" d="M786.41,-1597.87C786.66,-1585.25 786.98,-1568.87 787.27,-1554.15"/>
<polygon fill="black" stroke="black" stroke-width="1.15" points="790.76,-1554.61 787.46,-1544.55 783.76,-1554.48 790.76,-1554.61"/>
<text text-anchor="middle" x="823.5" y="-1568.8" font-family="Times,serif" font-size="14.00">20600179</text>
</g>
<!-- N18 -->
<g id="node19" class="node">
<title>N18</title>
<polygon fill="none" stroke="black" points="847.5,-1203.5 744.5,-1203.5 744.5,-1150.5 847.5,-1150.5 847.5,-1203.5"/>
<text text-anchor="middle" x="796" y="-1193.1" font-family="Times,serif" font-size="8.00">std</text>
<text text-anchor="middle" x="796" y="-1184.1" font-family="Times,serif" font-size="8.00">_Vector_base</text>
<text text-anchor="middle" x="796" y="-1175.1" font-family="Times,serif" font-size="8.00">_M_allocate</text>
<text text-anchor="end" x="839.5" y="-1166.1" font-family="Times,serif" font-size="8.00">0 (0.0%)</text>
<text text-anchor="end" x="839.5" y="-1157.1" font-family="Times,serif" font-size="8.00">of 20600179 (19.1%)</text>
</g>
<!-- N18&#45;&gt;N15 -->
<g id="edge17" class="edge">
<title>N18&#45;&gt;N15</title>
<path fill="none" stroke="black" stroke-width="1.15" d="M796,-1150.22C796,-1137.1 796,-1120.93 796,-1106.51"/>
<polygon fill="black" stroke="black" stroke-width="1.15" points="799.5,-1107.15 796,-1097.15 792.5,-1107.15 799.5,-1107.15"/>
<text text-anchor="middle" x="832.5" y="-1116.8" font-family="Times,serif" font-size="14.00">20600179</text>
</g>
<!-- N19 -->
<g id="node20" class="node">
<title>N19</title>
<polygon fill="none" stroke="black" points="847.5,-1316.5 744.5,-1316.5 744.5,-1263.5 847.5,-1263.5 847.5,-1316.5"/>
<text text-anchor="middle" x="796" y="-1306.1" font-family="Times,serif" font-size="8.00">std</text>
<text text-anchor="middle" x="796" y="-1297.1" font-family="Times,serif" font-size="8.00">vector</text>
<text text-anchor="middle" x="796" y="-1288.1" font-family="Times,serif" font-size="8.00">_M_realloc_insert</text>
<text text-anchor="end" x="839.5" y="-1279.1" font-family="Times,serif" font-size="8.00">0 (0.0%)</text>
<text text-anchor="end" x="839.5" y="-1270.1" font-family="Times,serif" font-size="8.00">of 20600179 (19.1%)</text>
</g>
<!-- N19&#45;&gt;N18 -->
<g id="edge21" class="edge">
<title>N19&#45;&gt;N18</title>
<path fill="none" stroke="black" stroke-width="1.15" d="M796,-1263.26C796,-1249.07 796,-1231.2 796,-1215.49"/>
<polygon fill="black" stroke="black" stroke-width="1.15" points="799.5,-1215.73 796,-1205.73 792.5,-1215.73 799.5,-1215.73"/>
<text text-anchor="middle" x="832.5" y="-1229.8" font-family="Times,serif" font-size="14.00">20600179</text>
</g>
<!-- N20 -->
<g id="node21" class="node">
<title>N20</title>
<polygon fill="none" stroke="black" points="845.5,-1429.5 742.5,-1429.5 742.5,-1376.5 845.5,-1376.5 845.5,-1429.5"/>
<text text-anchor="middle" x="794" y="-1419.1" font-family="Times,serif" font-size="8.00">std</text>
<text text-anchor="middle" x="794" y="-1410.1" font-family="Times,serif" font-size="8.00">vector</text>
<text text-anchor="middle" x="794" y="-1401.1" font-family="Times,serif" font-size="8.00">emplace_back</text>
<text text-anchor="end" x="837.5" y="-1392.1" font-family="Times,serif" font-size="8.00">0 (0.0%)</text>
<text text-anchor="end" x="837.5" y="-1383.1" font-family="Times,serif" font-size="8.00">of 20600179 (19.1%)</text>
</g>
<!-- N20&#45;&gt;N19 -->
<g id="edge20" class="edge">
<title>N20&#45;&gt;N19</title>
<path fill="none" stroke="black" stroke-width="1.15" d="M794.46,-1376.26C794.72,-1362.07 795.04,-1344.2 795.32,-1328.49"/>
<polygon fill="black" stroke="black" stroke-width="1.15" points="798.82,-1328.79 795.5,-1318.73 791.82,-1328.66 798.82,-1328.79"/>
<text text-anchor="middle" x="832.5" y="-1342.8" font-family="Times,serif" font-size="14.00">20600179</text>
</g>
<!-- N21&#45;&gt;N20 -->
<g id="edge16" class="edge">
<title>N21&#45;&gt;N20</title>
<path fill="none" stroke="black" stroke-width="1.15" d="M789.39,-1489.26C790.16,-1475.07 791.12,-1457.2 791.97,-1441.49"/>
<polygon fill="black" stroke="black" stroke-width="1.15" points="795.46,-1441.9 792.5,-1431.72 788.47,-1441.52 795.46,-1441.9"/>
<text text-anchor="middle" x="828.5" y="-1455.8" font-family="Times,serif" font-size="14.00">20600179</text>
</g>
<!-- N26 -->
<g id="node27" class="node">
<title>N26</title>
<polygon fill="none" stroke="black" points="970.5,-1547 867.5,-1547 867.5,-1485 970.5,-1485 970.5,-1547"/>
<text text-anchor="middle" x="919" y="-1536.6" font-family="Times,serif" font-size="8.00">std</text>
<text text-anchor="middle" x="919" y="-1527.6" font-family="Times,serif" font-size="8.00">__cxx11</text>
<text text-anchor="middle" x="919" y="-1518.6" font-family="Times,serif" font-size="8.00">list</text>
<text text-anchor="middle" x="919" y="-1509.6" font-family="Times,serif" font-size="8.00">push_back</text>
<text text-anchor="end" x="962.5" y="-1500.6" font-family="Times,serif" font-size="8.00">0 (0.0%)</text>
<text text-anchor="end" x="962.5" y="-1491.6" font-family="Times,serif" font-size="8.00">of 14680736 (13.6%)</text>
</g>
<!-- N22&#45;&gt;N26 -->
<g id="edge26" class="edge">
<title>N22&#45;&gt;N26</title>
<path fill="none" stroke="black" d="M919.79,-1597.87C919.68,-1586.58 919.54,-1572.29 919.41,-1558.87"/>
<polygon fill="black" stroke="black" points="922.91,-1558.87 919.31,-1548.91 915.91,-1558.94 922.91,-1558.87"/>
<text text-anchor="middle" x="956.5" y="-1568.8" font-family="Times,serif" font-size="14.00">14680736</text>
</g>
<!-- N23 -->
<g id="node24" class="node">
<title>N23</title>
<polygon fill="none" stroke="black" points="968.5,-1208 865.5,-1208 865.5,-1146 968.5,-1146 968.5,-1208"/>
<text text-anchor="middle" x="917" y="-1197.6" font-family="Times,serif" font-size="8.00">std</text>
<text text-anchor="middle" x="917" y="-1188.6" font-family="Times,serif" font-size="8.00">__cxx11</text>
<text text-anchor="middle" x="917" y="-1179.6" font-family="Times,serif" font-size="8.00">_List_base</text>
<text text-anchor="middle" x="917" y="-1170.6" font-family="Times,serif" font-size="8.00">_M_get_node</text>
<text text-anchor="end" x="960.5" y="-1161.6" font-family="Times,serif" font-size="8.00">0 (0.0%)</text>
<text text-anchor="end" x="960.5" y="-1152.6" font-family="Times,serif" font-size="8.00">of 14680736 (13.6%)</text>
</g>
<!-- N23&#45;&gt;N15 -->
<g id="edge27" class="edge">
<title>N23&#45;&gt;N15</title>
<path fill="none" stroke="black" d="M899.74,-1145.61C892.45,-1134.48 883.27,-1122.33 873,-1113 868.2,-1108.63 862.88,-1104.52 857.35,-1100.7"/>
<polygon fill="black" stroke="black" points="859.45,-1097.9 849.16,-1095.38 855.64,-1103.77 859.45,-1097.9"/>
<text text-anchor="middle" x="922.5" y="-1116.8" font-family="Times,serif" font-size="14.00">14680736</text>
</g>
<!-- N24 -->
<g id="node25" class="node">
<title>N24</title>
<polygon fill="none" stroke="black" points="969.5,-1321 866.5,-1321 866.5,-1259 969.5,-1259 969.5,-1321"/>
<text text-anchor="middle" x="918" y="-1310.6" font-family="Times,serif" font-size="8.00">std</text>
<text text-anchor="middle" x="918" y="-1301.6" font-family="Times,serif" font-size="8.00">__cxx11</text>
<text text-anchor="middle" x="918" y="-1292.6" font-family="Times,serif" font-size="8.00">list</text>
<text text-anchor="middle" x="918" y="-1283.6" font-family="Times,serif" font-size="8.00">_M_create_node</text>
<text text-anchor="end" x="961.5" y="-1274.6" font-family="Times,serif" font-size="8.00">0 (0.0%)</text>
<text text-anchor="end" x="961.5" y="-1265.6" font-family="Times,serif" font-size="8.00">of 14680736 (13.6%)</text>
</g>
<!-- N24&#45;&gt;N23 -->
<g id="edge24" class="edge">
<title>N24&#45;&gt;N23</title>
<path fill="none" stroke="black" d="M917.73,-1258.67C917.62,-1246.68 917.49,-1232.7 917.38,-1219.78"/>
<polygon fill="black" stroke="black" points="920.88,-1219.78 917.29,-1209.81 913.88,-1219.84 920.88,-1219.78"/>
<text text-anchor="middle" x="954.5" y="-1229.8" font-family="Times,serif" font-size="14.00">14680736</text>
</g>
<!-- N25 -->
<g id="node26" class="node">
<title>N25</title>
<polygon fill="none" stroke="black" points="969.5,-1434 866.5,-1434 866.5,-1372 969.5,-1372 969.5,-1434"/>
<text text-anchor="middle" x="918" y="-1423.6" font-family="Times,serif" font-size="8.00">std</text>
<text text-anchor="middle" x="918" y="-1414.6" font-family="Times,serif" font-size="8.00">__cxx11</text>
<text text-anchor="middle" x="918" y="-1405.6" font-family="Times,serif" font-size="8.00">list</text>
<text text-anchor="middle" x="918" y="-1396.6" font-family="Times,serif" font-size="8.00">_M_insert</text>
<text text-anchor="end" x="961.5" y="-1387.6" font-family="Times,serif" font-size="8.00">0 (0.0%)</text>
<text text-anchor="end" x="961.5" y="-1378.6" font-family="Times,serif" font-size="8.00">of 14680736 (13.6%)</text>
</g>
<!-- N25&#45;&gt;N24 -->
<g id="edge22" class="edge">
<title>N25&#45;&gt;N24</title>
<path fill="none" stroke="black" d="M918,-1371.67C918,-1359.68 918,-1345.7 918,-1332.78"/>
<polygon fill="black" stroke="black" points="921.5,-1332.81 918,-1322.81 914.5,-1332.81 921.5,-1332.81"/>
<text text-anchor="middle" x="954.5" y="-1342.8" font-family="Times,serif" font-size="14.00">14680736</text>
</g>
<!-- N26&#45;&gt;N25 -->
<g id="edge25" class="edge">
<title>N26&#45;&gt;N25</title>
<path fill="none" stroke="black" d="M918.73,-1484.67C918.62,-1472.68 918.49,-1458.7 918.38,-1445.78"/>
<polygon fill="black" stroke="black" points="921.88,-1445.78 918.29,-1435.81 914.88,-1445.84 921.88,-1445.78"/>
<text text-anchor="middle" x="955.5" y="-1455.8" font-family="Times,serif" font-size="14.00">14680736</text>
</g>
<!-- N30 -->
<g id="node31" class="node">
<title>N30</title>
<polygon fill="none" stroke="black" points="1106.5,-1542.5 1003.5,-1542.5 1003.5,-1489.5 1106.5,-1489.5 1106.5,-1542.5"/>
<text text-anchor="middle" x="1055" y="-1532.1" font-family="Times,serif" font-size="8.00">std</text>
<text text-anchor="middle" x="1055" y="-1523.1" font-family="Times,serif" font-size="8.00">deque</text>
<text text-anchor="middle" x="1055" y="-1514.1" font-family="Times,serif" font-size="8.00">push_back</text>
<text text-anchor="end" x="1098.5" y="-1505.1" font-family="Times,serif" font-size="8.00">0 (0.0%)</text>
<text text-anchor="end" x="1098.5" y="-1496.1" font-family="Times,serif" font-size="8.00">of 13118477 (12.2%)</text>
</g>
<!-- N27&#45;&gt;N30 -->
<g id="edge28" class="edge">
<title>N27&#45;&gt;N30</title>
<path fill="none" stroke="black" d="M1055,-1597.87C1055,-1585.25 1055,-1568.87 1055,-1554.15"/>
<polygon fill="black" stroke="black" points="1058.5,-1554.32 1055,-1544.32 1051.5,-1554.32 1058.5,-1554.32"/>
<text text-anchor="middle" x="1091.5" y="-1568.8" font-family="Times,serif" font-size="14.00">13118477</text>
</g>
<!-- N28 -->
<g id="node29" class="node">
<title>N28</title>
<polygon fill="none" stroke="black" points="1106.5,-1316.5 1003.5,-1316.5 1003.5,-1263.5 1106.5,-1263.5 1106.5,-1316.5"/>
<text text-anchor="middle" x="1055" y="-1306.1" font-family="Times,serif" font-size="8.00">std</text>
<text text-anchor="middle" x="1055" y="-1297.1" font-family="Times,serif" font-size="8.00">deque</text>
<text text-anchor="middle" x="1055" y="-1288.1" font-family="Times,serif" font-size="8.00">_M_push_back_aux</text>
<text text-anchor="end" x="1098.5" y="-1279.1" font-family="Times,serif" font-size="8.00">0 (0.0%)</text>
<text text-anchor="end" x="1098.5" y="-1270.1" font-family="Times,serif" font-size="8.00">of 13118477 (12.2%)</text>
</g>
<!-- N31 -->
<g id="node32" class="node">
<title>N31</title>
<polygon fill="none" stroke="black" points="1097.5,-1203.5 994.5,-1203.5 994.5,-1150.5 1097.5,-1150.5 1097.5,-1203.5"/>
<text text-anchor="middle" x="1046" y="-1193.1" font-family="Times,serif" font-size="8.00">std</text>
<text text-anchor="middle" x="1046" y="-1184.1" font-family="Times,serif" font-size="8.00">_Deque_base</text>
<text text-anchor="middle" x="1046" y="-1175.1" font-family="Times,serif" font-size="8.00">_M_allocate_node</text>
<text text-anchor="end" x="1089.5" y="-1166.1" font-family="Times,serif" font-size="8.00">0 (0.0%)</text>
<text text-anchor="end" x="1089.5" y="-1157.1" font-family="Times,serif" font-size="8.00">of 12589057 (11.7%)</text>
</g>
<!-- N28&#45;&gt;N31 -->
<g id="edge33" class="edge">
<title>N28&#45;&gt;N31</title>
<path fill="none" stroke="black" d="M1052.91,-1263.26C1051.75,-1248.93 1050.28,-1230.85 1049,-1215.02"/>
<polygon fill="black" stroke="black" points="1052.53,-1215.18 1048.23,-1205.5 1045.55,-1215.75 1052.53,-1215.18"/>
<text text-anchor="middle" x="1087.5" y="-1229.8" font-family="Times,serif" font-size="14.00">12589057</text>
</g>
<!-- N29 -->
<g id="node30" class="node">
<title>N29</title>
<polygon fill="none" stroke="black" points="1106.5,-1429.5 1003.5,-1429.5 1003.5,-1376.5 1106.5,-1376.5 1106.5,-1429.5"/>
<text text-anchor="middle" x="1055" y="-1419.1" font-family="Times,serif" font-size="8.00">std</text>
<text text-anchor="middle" x="1055" y="-1410.1" font-family="Times,serif" font-size="8.00">deque</text>
<text text-anchor="middle" x="1055" y="-1401.1" font-family="Times,serif" font-size="8.00">emplace_back</text>
<text text-anchor="end" x="1098.5" y="-1392.1" font-family="Times,serif" font-size="8.00">0 (0.0%)</text>
<text text-anchor="end" x="1098.5" y="-1383.1" font-family="Times,serif" font-size="8.00">of 13118477 (12.2%)</text>
</g>
<!-- N29&#45;&gt;N28 -->
<g id="edge31" class="edge">
<title>N29&#45;&gt;N28</title>
<path fill="none" stroke="black" d="M1055,-1376.26C1055,-1362.07 1055,-1344.2 1055,-1328.49"/>
<polygon fill="black" stroke="black" points="1058.5,-1328.5 1055,-1318.5 1051.5,-1328.5 1058.5,-1328.5"/>
<text text-anchor="middle" x="1091.5" y="-1342.8" font-family="Times,serif" font-size="14.00">13118477</text>
</g>
<!-- N30&#45;&gt;N29 -->
<g id="edge29" class="edge">
<title>N30&#45;&gt;N29</title>
<path fill="none" stroke="black" d="M1055,-1489.26C1055,-1475.07 1055,-1457.2 1055,-1441.49"/>
<polygon fill="black" stroke="black" points="1058.5,-1441.5 1055,-1431.5 1051.5,-1441.5 1058.5,-1441.5"/>
<text text-anchor="middle" x="1091.5" y="-1455.8" font-family="Times,serif" font-size="14.00">13118477</text>
</g>
<!-- N31&#45;&gt;N15 -->
<g id="edge32" class="edge">
<title>N31&#45;&gt;N15</title>
<path fill="none" stroke="black" d="M1017.9,-1150.21C1002.63,-1137.4 982.85,-1122.64 963,-1113 930.33,-1097.14 891.16,-1086.54 858.97,-1079.79"/>
<polygon fill="black" stroke="black" points="859.87,-1076.4 849.38,-1077.85 858.49,-1083.26 859.87,-1076.4"/>
<text text-anchor="middle" x="1023.5" y="-1116.8" font-family="Times,serif" font-size="14.00">12589057</text>
</g>
<!-- N32 -->
<g id="node33" class="node">
<title>N32</title>
<polygon fill="none" stroke="black" points="1054,-869 854,-869 854,-834 1054,-834 1054,-869"/>
<text text-anchor="middle" x="954" y="-858.6" font-family="Times,serif" font-size="8.00">__nptl_change_stack_perm@@GLIBC_PRIVATE</text>
<text text-anchor="end" x="1046" y="-849.6" font-family="Times,serif" font-size="8.00">0 (0.0%)</text>
<text text-anchor="end" x="1046" y="-840.6" font-family="Times,serif" font-size="8.00">of 566534 (0.5%)</text>
</g>
<!-- N32&#45;&gt;N32 -->
<g id="edge37" class="edge">
<title>N32&#45;&gt;N32</title>
<path fill="none" stroke="black" d="M1054.29,-859.64C1065.07,-858.07 1072,-855.36 1072,-851.5 1072,-849.21 1069.56,-847.32 1065.31,-845.84"/>
<polygon fill="black" stroke="black" points="1066.29,-842.47 1055.76,-843.69 1064.75,-849.3 1066.29,-842.47"/>
<text text-anchor="middle" x="1099.5" y="-847.8" font-family="Times,serif" font-size="14.00">566534</text>
</g>
<!-- N34 -->
<g id="node35" class="node">
<title>N34</title>
<polygon fill="none" stroke="black" points="1033.5,-774 860.5,-774 860.5,-730 1033.5,-730 1033.5,-774"/>
<text text-anchor="middle" x="947" y="-763.6" font-family="Times,serif" font-size="8.00">std</text>
<text text-anchor="middle" x="947" y="-754.6" font-family="Times,serif" font-size="8.00">__throw_ios_failure@@GLIBCXX_3.4.26</text>
<text text-anchor="end" x="1025.5" y="-745.6" font-family="Times,serif" font-size="8.00">0 (0.0%)</text>
<text text-anchor="end" x="1025.5" y="-736.6" font-family="Times,serif" font-size="8.00">of 566534 (0.5%)</text>
</g>
<!-- N32&#45;&gt;N34 -->
<g id="edge35" class="edge">
<title>N32&#45;&gt;N34</title>
<path fill="none" stroke="black" d="M952.78,-833.52C951.83,-820.26 950.48,-801.45 949.32,-785.34"/>
<polygon fill="black" stroke="black" points="952.84,-785.44 948.63,-775.72 945.86,-785.94 952.84,-785.44"/>
<text text-anchor="middle" x="978.5" y="-795.8" font-family="Times,serif" font-size="14.00">566534</text>
</g>
<!-- N33 -->
<g id="node34" class="node">
<title>N33</title>
<polygon fill="none" stroke="black" points="1030.5,-977.5 877.5,-977.5 877.5,-942.5 1030.5,-942.5 1030.5,-977.5"/>
<text text-anchor="middle" x="954" y="-967.1" font-family="Times,serif" font-size="8.00">_dl_catch_error@@GLIBC_PRIVATE</text>
<text text-anchor="end" x="1022.5" y="-958.1" font-family="Times,serif" font-size="8.00">0 (0.0%)</text>
<text text-anchor="end" x="1022.5" y="-949.1" font-family="Times,serif" font-size="8.00">of 566534 (0.5%)</text>
</g>
<!-- N33&#45;&gt;N32 -->
<g id="edge36" class="edge">
<title>N33&#45;&gt;N32</title>
<path fill="none" stroke="black" d="M954,-942.36C954,-925.89 954,-900.36 954,-880.71"/>
<polygon fill="black" stroke="black" points="957.5,-880.89 954,-870.89 950.5,-880.89 957.5,-880.89"/>
<text text-anchor="middle" x="981.5" y="-899.8" font-family="Times,serif" font-size="14.00">566534</text>
</g>
<!-- N34&#45;&gt;N3 -->
<g id="edge34" class="edge">
<title>N34&#45;&gt;N3</title>
<path fill="none" stroke="black" d="M915.37,-729.66C899.39,-719.26 879.5,-706.89 861,-697 852.64,-692.53 843.59,-688.12 834.73,-684.02"/>
<polygon fill="black" stroke="black" points="836.41,-680.93 825.85,-679.99 833.51,-687.31 836.41,-680.93"/>
<text text-anchor="middle" x="913.5" y="-700.8" font-family="Times,serif" font-size="14.00">566534</text>
</g>
</g>
</g></svg>
